/* XPM */
static char * Sem título_xpm[] = {
"128 128 64 1",
" 	c #230F0A",
".	c #320D08",
"+	c #171612",
"@	c #252621",
"#	c #3A241D",
"$	c #4B201A",
"%	c #2F321E",
"&	c #30312F",
"*	c #31322A",
"=	c #3E3F38",
"-	c #3E4031",
";	c #583B2D",
">	c #643833",
",	c #553D38",
"'	c #76342D",
")	c #6C392D",
"!	c #444A2C",
"~	c #4A4C39",
"{	c #4B4B42",
"]	c #6E514A",
"^	c #575A47",
"/	c #5A5A4F",
"(	c #81514B",
"_	c #77573B",
":	c #8D4F49",
"<	c #904F40",
"[	c #5C6244",
"}	c #9C4E46",
"|	c #6F5E47",
"1	c #5E663D",
"2	c #68675A",
"3	c #AE5E55",
"4	c #776F64",
"5	c #BA5C56",
"6	c #8D6A57",
"7	c #A3635A",
"8	c #CE5847",
"9	c #747264",
"0	c #B85F4C",
"a	c #936964",
"b	c #707464",
"c	c #C55D3F",
"d	c #717653",
"e	c #C65E4C",
"f	c #717947",
"g	c #79786A",
"h	c #838172",
"i	c #808461",
"j	c #7E8751",
"k	c #898779",
"l	c #908E80",
"m	c #8C9268",
"n	c #8D9457",
"o	c #94907D",
"p	c #989688",
"q	c #A39F8F",
"r	c #B3AF9F",
"s	c #C4BFAF",
"t	c #D1CABD",
"u	c #D5CFBB",
"v	c #D5D0B4",
"w	c #DFCDC1",
"x	c #D9D0C3",
"y	c #DEDAC7",
"++++&/2gklpqqqrrrrssssssssssssttttttttxtttttttttttttttttttttttttssrpk{++++++=gprrsstttxxxxyxxxttttttttttsrrp22gggg9krrqplg{+++++",
"++{hpppppkkkhhhhkhhkklppqqqqqrqqqqpppollpqrrssssssrsssssssssuuuyyyyyyys{++&lssrqqppppqqqqqqqqpkkkkklkklpqqql22/29hhptxxxyxys/+++",
"+{kkhhhggggg9ggggggggkkkhhhgggg9hgghghhgkkhkoooqrqqqrrrrqqqrrrsuuuuyyurs=+9qiiioooollkoookhhhkhhokhhhghhh4422////99grsrpllqtt{++",
"@ghhkhhhhggggghgggg9ghhkhhhhhggggghhghhggglokokhkllkooqqqqrrrrqruuyyyu2s/+9diiddihollkoooohqqooooqqkhhhkg4gg9222^//2pqokkkkgrr++",
"=g9hhghhggggg9g999999ggghhhggklphhgggghqsssrkkkkkkkhhhhhklpqrrrrstxyyxrr2*bd[d[[ddhhokooqqooqoohhoqqlkklkhgkkhkkb/^/92gkklklhs&+",
"{2^2gorrqqog9999ghgppprqphhkhhklhkpgghhsttstrokkkhkkkhklkkhkpqqsxttxxxsqb[dffddddddioolloooqqooookhookohkhkkghgbggk9^^^2hookkp{+",
"{2229osuuuss9999ghhsttsqgggklllkkhggggqttttstqkkhkkkkkhkhkkkloorxyxxttuqidffjffddddiqqqrrstttxtttsrqrsssrqohhh9ghhb[[2^229okoh/+",
"{229//suutss9hhhghhkqlhgggggggkplhgghgsttttttokkkkhklkhkkkkklqoqrtyutr^~bdifjjddd1imrvuxxxxxxxxxxxuuuuuuuyutqoh9hh[^^^^^^^ookk/+",
"=/2/{{^rtsrkghghhkgggg9ggggggggggkkhhgrxttstrollkhhkkhklkklkkpqlqqxxtq*@@@~[[[id1!iiirutxxxxxxxxxxxxxxxxxtxxxxurg^^^^^^^^^ollk2+",
"={{{{{/{h2/2gghg9ggggggg99ggg9gggghlhglrtssrokplqplqphkllqstsrkqrqsxxr=&@@@%%%!!!!111ruxxxxxxxxxxxxxxtxxxxxuuxxxxh^^b2^~^^lkklh+",
"&{{{{{{{{/9gghhhg9g9999999gg99g9ggghggghkkkkohpprplllhhhksyxytqpqqqxxxs2@@@^dimd[[1fmvswxxxxxxxxsrxxtrtxtxxuuyxxxs/^^[^^^/hllpl@",
"&{{{///-{9ggggggg9999999999g9gggggg9gg9ghhgkkkphhhhhhkkkhxyyyxqpppruytvr[%~oijjdd11mmvvurrrsuxxxrqxxxsqqrtxxuuxuxxuo^^^^//2rtqq@",
"&{{{{/2/9gggggg999999999999999gggggggggggggkhhhhhlkkkphhkqxytrrqoosuuumff1[gbdf11111d1rvg44ouxxxstxxxtqrrqqsxxuuuuuusl////hgqss*",
"&{{{{{/9gggggh999999g999999gh99gggggg9gggghhhpkkhkhhhkkhhhkqloqqoqsuuodjff!%%[d1!ddddd[iqrsyuxxxxxxxxxqsoqoqqstxursyyxxrlqrg9qr*",
"&{{{{/29gggggg9999999999999gg99ggggghgghggghhphhssrpphhkkgkhkqooqosuu9fjffd%%%![11d1dd1duuyuuxxxxxxxxxtqooopllprrqrsstyyxytqghq*",
"&{222999gggghg9999999999999999g9gg9gkggghhgkhkhqxxxxxkgkhkrhkkhkooqtu9!fff1[[[^[d[1dddd1suuuuxxxxxxxxxxsooolplklkkkqqssuuuuurop*",
"@{9b92999ghg9g9g9g99999999999gg99ggggggghkhkhhqxtxxxxtlgghhhhhkkhhhqtsd[df1![[[[[[mv[dd1ruuuuxxxxxxxxxxtssrlrrkpkhkkkkquuuuusop*",
"@{bbb999gggggg9g999999g99999999gg9hh9gggghhhkpsxxxtxxxthghhhhkkhkkhosssg~[[![[[[[dvv[dddruuuuxttxxxxxxxxtsslsspkkkkkqhhquuuuuqp*",
"@{bb9999g9gggg99999999999999999ggg9gggggghlprxxttxttxttghhhhhhhkkhkorrrq~^[[[[[[[kuuddddsuuuuxxxtsxxxxxxttrrslqklkkhqqplruuuusp*",
"@{bbb99999999g99g99999999999999g99g99gggkqllrxxtxttttxr4hhhhkhkkhhkoorso~~^^[^~^2suug[d1vuuuutxxxtxxxxxxtqoqutssqkkkkqqkqxuuuuq*",
"@{bbg99999g99g999hp99999g999999g9ggggg9hhkhklttxxxttxxphhhhhhhhkkhklkord!~~^-=**^stuh|ddvuuuuxxxxxxxxxxxxsoruxsqpkhhkpppqxuuuur*",
"@{99hh99g999gg9999rp999999999g9g9g99g99hhhhhkqxxxxxttxqhhhhosqkhooolloidf1[-&&&*/tsush9vuxxxxxxxxxtxxxxxxtuuuuohkhkhhloorxxttur*",
"@{99h999g999hgg9999g99999999999999ggg9hqhghkkkrtxxxtspxqgkqsyyqhkhoooidfffd!****/tuuuuuuuxxxxxxsssxxxxxxxxxuuxqqtrphoooottxxtuq&",
"@{999999999999999999999999ggg9g99hghqkgkplgkhhghlrrqogqtrtxxxxshhkgdiffffffd!!!~2xusuuuuxxxxxxxsoqtxxxxxxxxutxtsttslsoqqrorrsuq&",
"@{9929999gh9999999g99g99999999grqh9gghlk99hhgghhgghhhhlqrtxxxylghh[1fffffffdd[[^9uuusuxxxxxxxxxxqrxttxxxxqqxxtttrollsrorooqqqsr&",
"&{9999999gg999g999999999999h9gglg9g99999gggggghhgggkhkhgghqssoggg/^1ffffff1dd2^^9uuuuxxxxxxxxxttrsxtrxxrtslxtsxttoqkrsosooorqrr&",
"&={29999999999999999999g9g9klh9999999999ggg99ggggghhhhgggg99gggg2/^ddffffd!!!~{{puuuuxxxxxxxxxxxxxxxtxxxttstrlrxxroostxthkrsqqr&",
"&={{29999999999999999999999kphg9g999gg9999gggggggghhggggggggggg99{--!!1d[[!di[~{rxuuuxxxxxxttxxxxxxsrrxxxxstqrqsxxuuxxxtohsroqr=",
"&=--{299999999999999g999999g99ggg999999999ggggggglgggggg9gggg999g-***-%%%%1mfd[^txxxuxxxxxqoqxxxxxrooqxxxtolpqoruuuuxrqtrorqooq=",
"&*{-{{299999gk999g9999999999gg999g999g9999gggggg9rlgggggg9gg9g992-%%--%-2[1fjffsxxtxuuxxxsrrsxxxxxtqkrxxxxrllplsuyuuxpostsqpolq=",
"&*==--/9bbbbbbb99g999999bbbbbbbbbbbbgbbbbbbbbbbbbggggggggggggggg2%1fm1!!ijffjfmyxxxxxxxxxsqrtxxxxxxstxxxxxxsqqsxxxxxxokrrokoolq=",
"&*==---/9bbbbbb99999g9ggbbbbbbbbbbbbbbbbbbbbbbbgbbgggggggghggggg2!djjj[!ijf1jdiuxxxxxxxxxtqrxxxxxxxxxxxxxxxxxxxxxxxxxttxqhooolq{",
"&*==----29bbbbb9gg99hgh9bbbbbbbbbbbbbbbbbbbbbbbbggbggggggghg9ggh2-ifffb~[1111iquxxxxxxxtxxxxxxxxxxxxxxxxxxxxxxxxxxxxxxxxtqrprqq{",
"&**-----{299bbb9999gpg99bbbbbbbbbbbbbbbbbbbbbbbgbbgghgghgggg9ghg9-[1d1--![11[oyuxxxxxskhqxxtxxxxxxxtrsxxxxxxxxxxxxxxxxxxxxxxxsq{",
"&**------/99bbb99999g999bbbbbbbbbbbggqkbgbbbbbbgbgbgkhgkggggghkg9{%%%%%~[[11[[suxxxxxpoorxxssxxxxxxxssxxxxxxxxxxxxxxyuuuuuuuusq{",
"&**=--==-{29bbb999999999bbbbbbbgbbbb9bbbbbbbbbbbbbgggggggghkhoog9/****~[[1111[quxxxxxortxxxrkttsxxxxxxxxxxxxxxxxxxtxuuyuuuuuusq=",
"&&*=--===-29bbb999999999bbbbbbbhgbbbbbbbbbbgbbbgbbbggghgggghhihg2{={={^[[1111[ruxxxxxtxtxtxtrxtxrrxxxxxxxxxxxxxxxxxxuuuuuuuuusq{",
"&***--==={/9bbb999999999bbbbbbggbbbbggbbbbgbbbbbbbbg9ggggghg9ggg2{~2^^[[[[1[[[vuxxxxxxxxtxxxxxxtqqxxxxxxxxxxxxxxxxxxyyqruuuuusp=",
"&***-====-{2hgog99999999bbbbbbbgbbgbbbbbbbbbbbbbbbbgggggghg929992~[[1[^!![![[ouuxxxxxxxxxxxxxxtxxxxxxxxxxxxxxxxtxxxsrsuryrqsusp=",
"&&**======-299h99999999g9999999gggbbbbbbbbbbbhbbbbgbbgbbgbb292422{~~~~~-~[[!~sxxxxxxsxxxxxxxxxtxxxxxxxxxxxxxxxxxxxxouqruuqoqtsp=",
"&&***=====-/g9999999999g99999ggggbbbhhbbbbbbblgbbbbgbbgggb2bb9992{=-^^~%^[[druxxxxxxxxxxxxxxxxtstxxxxxxxxxxxxxxxxxtquyuuusqqsql=",
"&&***=====-{9999999999999999g9gggbbbhbbbbbbbbbggbbbbbbgb2bbbb9992{=-~~-~^[[huuxxxxxxxxxxxxxxxxxttxxxxxxxxxxxxxxxxxxxsuuuxrqoohl=",
"&&****===---299999999999999ggg9ggbbkhbbbbbbbbbbhbbggggbbbgbbb9999{====~^^^hsuuxxxxxxxxxxxxxxxxxxxxxxxxxxxxxxxxxxxxsxuuuxrhh9hgk{",
"&&**=*=--~--^g29999999999999ggggggbkgbbbbbbgbbbbbbhkbbbbghbb29929/====@~~quuuxxxxxxxxxxxxxxsssxxxxxxxxxxxxxxxxxxxxqsuutqgg9gggk{",
"&&**=--^^^~~~bggg999gg9999929gggg9bbbbbbbbbbbbbbbbbggbbbbgb229b22/===&+-{suuuxxxxxxxxxxxxxxrorxxxxxxxxxxxxxxxxxxxxtxxxrhhgggggk{",
"&&**=-[iddiiiddgg999gg9999922999ggbgbbbbbbbbbbbbbbbbbbbbbbbbb29292===@+={sssuuxxxxxxxxxxxxxsqrxxxxxxxxxxxxxxxxxxxxxxythhggg99gk{",
"&&*==-ddffffmi[9g9g9g99g999g22999gbbbbbbbbbbbbbbbbgbbbph2bbb2bbb22{==@+=/sssutxxxxxxxxxxxxxtstxxxxxxxxssxxxxxxttxxxxsphhhg9999h{",
"&*===-1ffjffjmdbg9ggg9999999929ggggggbb9bb99999ggbgbbblbbbbb2222/{==&++{/stuutxxxxxxxxxxxxxxtxxxxxxxxs444sxxxxxsxtrh94gggg9999h{",
"&**===~[dmjjmi[^9gbbghddbbbbbb9ghgggggbbbb99gg9gg99bdbbbbbb22/,,,--=*+@{/suuuxxxxxxxxxxxuuuuuuuuuuuuuu499hxuuuuup999999ghg9999g=",
"&=--==--!11fii!*-~/22ghhbbbbbbbb9944gg999gg9gg99999bb94492/{=*&&&===++@{{ssuuuxxxxxxxxxxuuuuuuuuquuuur9hg4tuuyrh999999gggg9999g=",
"-%%%=*-![fff!!!%%***-{/29gg999999bbbb99g9ggbbbb9bbb944/{=-*&&&&&&==&++&{{rssuuuxxxxxxxxxuuuuuuusouuurh9hh9tusp9299999999999929g{",
"^[[~*=-!ddfjfdd~%%**=*&**{/2g9999bbbbbbg99999999992/=&&&&**&&&&&&@@  +={{psssuuxxxxxxxtsuuuuuuussuuuroohgptq4929929999999999229{",
"^[d!-==~dddfiidd[~%--*==-**==/299bb99h999999444/{=***&&&&*@@++++@+++++&{{krrrsuxxxxxxshgouuuusuuuuuusssssth92999922999999992229{",
"^[d!-==-^[!!didfmid!%%%%--*****-^244444499gb/{=&&&&&*@&@@  .$>((];$;#+*{{/rrrrstxxxxxq4kouuuuuuuuuuuuutxtp999999299999999992229{",
"~[[!-===-%![1d1fjjmd%[dd~-**&&****=/2bbbb2{=@&&@&&@+  + >:7735553337( @{{{9rrrsstxxxxtsxuuuuusuuuuuuuuttsg99g9999g9999999929929{",
"-^![^----!dd1fjfffjd!didb%***&&****@*---*@@@ ####,]aaa,$735555555053( +{{{{/pssstttttxtxuuuuuuuuuuuuuuxshh99bbghg999999g9999229{",
"*^~~^~~~![dffjjjf11111!!~~%+@@@@@@*##$>)>>>>aa7777777a;$730ee0e5ee05( +={{{{{9rstttttxxtuuuuuuuuuuuuuuxthh9bbbbhh99999999999222=",
"@{~~^~^[[1dd11fdd![[ddd[!!~*+++  '}733533:>>733337)))a,$7000055eee557$+&,{{{{{/kruuuuuuuuuuuuuuuuuuukktthk999bbbbbbb999g9999229=",
"+@==--![11d!![!--%%%~~~!!~/=++ $:0e555e53:.(300003(()(,$3000500005557>+ ,{{~{,{{~2prstttuuuuuuuuuuuuortsgl999/^^^bgb2bbb9999229=",
"++++*--~[d[%-~^^~-%%%%%%@@@+++$75e5550e537.(3000537:::>$35e55e00033}7]  ==-===={~{-{~^22hlqrsuuyuuuuuutr9h222%%%-^2^![dbb999229=",
"++++*@*-^[--**%{{-*lstsssk*+++ :35000eee03$>7333553377($75555533}'7:>,++&{==,={{{{{{{{{~{{{{{//gqtuttttk22222~~^~-^biiddbb92222*",
"++&/{{{2ghhhkkhh2hsyyxuuuuur2++ >:333000<7;#>::7733777] >>)))::(>>>#.  ++&=,,{~-{{{{~~~~{{{{{~~~~/kstts/22/22^2iid![diid[2b9222*",
"+@klkkloooopqqqqruyyyyyyvvvuxr/++ .#>>>>># +    .$)_$$  #$>>>))>)))>>>>$ +@&={{{{{=***=={{{{{~{{{{{/hp2{22//22^diijf1fddb~/2222*",
"+*9lllkhhhollooqqsuyyyvyyyvuwwxs/+++#,####  >:(::7:(>>>]a7(a777333033353<)#+@&==&&&@@&@@@**=={{{{=====*={////2^^djjjjfddb~~22/2*",
"+=29992^bb999ghoohoqsuyyyyyywwwuvs~ +#]6a7] a())'')(::(((>;;>):7}00000e0007]++    ++++++@##@@@**={========{/2/^^[diffjddb~^22/2@",
"+{222/2bgbggghhkhhhlpqrsxxyyvyuuvvuq=+ ;(7( >:<:::>;>>>(((>;,,,)733000}000}( >3333}<:))$..  @@@@&*=========={/2/^^[dfdd^^-^2^//@",
"+{22//29g9ghhhhhgkkkhkqqrruvyyyyuvuxtp= .$] >7}}}7>;,;;>>)((7],;>:350e530}}>.:e88888eeee53}''.  @@%*&&*======{/22/~^[[!~-=/2///+",
"+/22229ggghhhhhhhhhhhhllqrqruyyyyyuuuxxk*+  $(}}}:>;,,,,,>(7776;,;(3eee0037> :e8888888888888e53'$.+@@&&&=======/2222^-*&&&={//{+",
"+{2222ggghkhhhhghhhhkkkkoqrorsyyyyyyutxxt4++ >7:}7::>>>,,,](>>)(>,>(3ee0<<(, (0cccccccccccccc88ee3>  ++@&&&====={{{=**=&&&*-{/*+",
"@/2222ghkkkkhkhhhhhhhkkkhklqqqsyyyyyyyxttxrg+ >(77}33::(;;;>>](((]#;7553<(], >5eeeeeeeeeeeec8888e53> ++++ @&=====&*&&&&&==&*=/@+",
"@{2222hhklkkklhhhhhhhkkkhhhoqqqruyyyyyyyuuttq=+#>(735337777((6a(>,,#67:(>;,&+#:}}535}33350ee88ee0}}( +2*++++@&&&&&&&&&&====={=++",
"&{/222hghklkkhhhhhhhhhhkkkokkqooqyyyyyyyyuutttk*  .$#$>>)')>>_(>](:)''')))>$#.$$..........$$'}''$$$# +2g++++++++++@++++@@@@@&+++",
"&{/222hhkkhhkhghhhhhhhhhhkkkhkoooxyyyyyyyyyuutxth@+++ #a7}3<<33(;75e0e00e55533333'((((7:(.$<0003}'$$.....   ++++++    ++++++++++",
"&{/222hhkhhklhhhhhhkhhhkhkkkkooqsyyyyyyyyyyyuuttxsk@++ (35e00e57.588e8cc888cceee03)(()<37$30eeee003333}33377(>.  ]a7:(; ++++++++",
"&{/229khkhkkkhhhhhhhhhhhkkkklooryyyssyyyyyyyyyuvuuxsg@+.:5eeee57.088c8888eecceeee}))>)'37'35888eeeeeeeeee000537a$)0e037,++&= +++",
"&{/229hhkkhkkhhhhhkkhhhkkhkkkoosyysoqqsyyyyyyyvvvvuuxs/ .'35ee57.3e8ce888eeee888e0<)>)<37$30e88eee8eeeeee0eee0<6;)0ee3:.=lttk+++",
"&///29khkkkkkkkhhhklhhhhkkkkkkpsysplpppqsxyyyxyyyuuuuuxr= )3ee07.:588c88ceeeeeecce}:))'37$7e8e55eeeeeee8eeeeee}(;$307$.ltyutt2++",
"&{/229hhkkkhhkkhhhklkhhhklhkklsysqllllplpqqrtyyyyyyuvuxxyk )3057.$}8888888888eeee5})>)'}7.7ee}''}}}00eeeeeee8e0:>$77$,rwxxuuus@+",
"&/922gkhkkkhkkkkhhkkkkhhhqlklkssplpqqlllpppooqsuyyuyyywuuyr,$<53. (08eecc888ee0055}7()'5:.:55);>:::}}0eeeeeeee0:, #.,swwuuuuut/+",
"&2lpl9khhhkkllpkhhhhhkhhkhhkkkllllppplllpploqoooruyyyywyyuyu{ >( +;3eeeee8eee00<7:>>$$(:(.>77$##((::}335eeeeee3:>  ,txxwuruuutl+",
"&/lpp2hgkkhkhhkkhhhhhhhhhkkkkkkkllllllplplpooqoooqtyyyyvvyuxt2++++ ))<}}7<))))'$....  $$>  $>.  #$$$$$>):<}<<<)># {tttxusqsuuus+",
"&/lll9hhkkhhhhhkhhllhhhhhhkkkkklkllllllplppqooqqppptyyyyuyyxxt{+#>>$)$$$.    >>((((>(aaa(]~]a(]]]]];#   #$$)>>;# 4tyxuuuuuuuuut@",
"&2lpp9hhlkhhkhhkhklkkhhhkhkkkkkkklllllpppqoqqrollpppsyyyywyxxxs*.(7773337(.#]a77777::::')>,;7a))(((aa,#]aa77aa]#lxuuuuuuuuuuuux{",
"&/lop2hg2/9hkhkhklkhhkkkkkkkkkkkkllllpllqpsuuxsppllposxyyxurruts* ;;$$}037)#66:):::7:77777a:}77777)$(]##$'}) @@rxwwwsuuuuuuuuuu/",
"&/lop29////2hkhhhkphhhkkkkkkkkklkllllllppsyuyxtqplploopqrqqooortr%#>:7}}53:$>()777<}}}}}}}}}5}7}33:::(.>7337.,rtxxuusuusuuuuuvu4",
"&/ppq22{{///bkkhhlphkhhhkkkkkkkkllllllllltxxyytllpqlllkllklpoplqsr*.>:}<00<#a($):<<<}}}}}}}}}}}3555}:$>a77(#/sxxxuuutsuurquuuux4",
"&/llp92////2hkhhhhkhhpkhkkkkkllklllllllllrtxxxrlppqllpllplllppllqrr-.>:'00<#,::::'}}}}}}}}}}}}}}}}}}:$>$7$#2txxxuuuuxxuussuuuuth",
"&/kkl2ghggghghhkkhkllphkkkkkhklkllllllllplprsrlllppplppplplllpplpprr- ><}5:#;:}:::::}}}}}}}}33533}}}:$a>$#9txxxxuuyuxxtuuuuuuutk",
"&/kok9hgggghhhhhhhkklkkhkkkkkkkkkllkllllpppllllllllppppplpqpkqpppppqq- $:37##:}<<<<<<<<<}}}}333333337$a; lyxxxxxuuyuxxtuusoquutk",
"&/hkk9hghhhhhhhhhhkkkkklkhkkkkkkklllllpllppqlkllllpplppllppqlppppqppqq= .>]##((<<<<}}}<<<}}3333355537$# pttxxxxxxxuuxxttsqhquutk",
"&{hkkkhhghhhhhhhhhhkkkklkkkkkkkkklllllllkllplllllllllpppppppllqplpppppp*+++@##;((::7::7777773333333})#%rtxxxxxxtxxtxtttttqruuuxk",
"&{hhkplhkhhhhhhhhhhhkhkkkkhkkkkkkkkkkllllllpllplllplllppqqqqqqqpllpplqpl@+@=*%%@####>>>>>>>>>>>>(>:)a,qttwwxxxxsttxsttxxxttuuut4",
"&{ghhkrqhhhhhhhhhkkkklkkkkkkhkkkkkkkkllllllplpplllpplpqppppqplqppppqpppp/+@--%^d!+##....     +++++ ;;qrtxwxxxxxtxxxtstxxtstxuur4",
"&-gkhkrtkkhhhhhhhkkhklkkkklkkkkkkkkklkkhgghlllllpplpllppppppllppppqpqpqpl#@-!!~di|;](((((((,,   ++-/4osuuuxxxxxxxttstxxxrhsuxul/",
"*-9khlkkllkkkkhkkhkkkkkllklkkkkkkkooklh22222lllpppppppppppqqllpqqqqpkqqqp2+%dd11fd!;;>>((::((]  =^!|hruuxxxxxxxxtxxttxxxxsuuuth/",
"*=/hhklllllkhkhggkkhhhkkkkkkklklkkooklh22/22kllklpppppppppppppllppqqppoopp*@!1!!1fi9##>>>))__; */2diruutxspxxxxxxxtxtxxxxuuuuqg/",
"*={hglllqsrplh9gggkkkhkkhkhkklkkkokkllk2222/hlkkkklppppppplppppppplpqqpooqg@@[jfj11d##;(6_6_d|[[[ddosuuuxxxxxxxtssxtxxxxtquuuhg/",
"*==9hllllpqplklqqlkhkkhhkhkkggkklokklllk22//hlllkkklppppppllpppppllppppqoop2@%ijjn11d||__||dffj1!~duuqutxxxxxxxxsptxwtxxxtuur4g/",
"*=-/ghplllpplqrqqqkkkkhkhk9/2/kklkkkkllllg9hllllkkkkllppppllpppppplpllloqopp9%%fnjf!d||6||!dmjjj[!^sustxxxxxxxxxtlktxxxxtxtxl4g/",
"*==-2hlklkplrqqqqpkpkkhhk9/99gkkkkkkkkkkllkkllkllllllpppppppppplpppplooolppppg%%!d!%-%-|||%!djjd~9~2rxtxxxxxxxtxxqprxxxxxxxs4gh/",
"*===-/hllllplkpqqllpkkhhg/9h9kkkkkllkklkllllkkklkkklkklpplpplppllppplpoollpoopk=@@@@&&&*/*%d[!!![qthrxxxxxxxxxxxtqksxxxxtttl49h/",
"*====-/hllllkklklpqqlkkg/9h9kkkkkkkkklkkooolkkklkklpqrrppplpppplpppllpqpooopllll{+&&&&&**@-1dffddixysxxxxxxxxxxxxrrtxtrsxtr999k/",
"*====--{hlllllllllpqpllhlhgglkkkklkkkkkoooolklllkllpssqkkllplppppppplpppomqkpkoll{+@@@%!-*!ffffff1rxxttxxxxxxxxxtxtxsg29kp9g99l{",
"*=====--/klklllklllpppllohhohhooooooooooooplllllllkhkgghghkhghkpppooooppoqollooolg+@@![1[[1ffffffdpytxxxxxxxxxxxtxxts222229999p/",
"*=======-2kg2kllllllpllloooooookooooooooooolkklllllkkkkhhg92229kppoqoooopplllkookk@@-[111[1ffffffdoxtxxxxxxxxxxxxtttq/9222999hl/",
"*======={-2lhlhkkllllllloooooooooooooooooollllllllllkkkhggb22222hllpqqoollpkkkkhhk{@^[[[[[!!ddddd[sxtxxxxxtxxxtrsxtq2////2999lp{",
"*========={glkollkklppploooooooooooooooooolllllllklllkkhggb2222229gklpoopllloooi99/@{2^-%%~^[[[[[hxxxxtgpxxxxxtrxtk///////299gl{",
"*==={=={===/kloplllllklkohoooooooooooooooollllllllllllkkhgg2222222999poqplloimmmd99*@-@**--b^~-^oxtxxxk4hxxtxtxts4/////////999l{",
"*=={/{====={hkollplkplklhoooooooooooooookolllllplllllllllg99222222292llpqpoijnnjidb2%@**=*b2/{ltxtttxs999grxxtxt9//////////2ggl=",
"**={/----{==2klkklllpllloooooooooooooooooolllllllllkllllk922222222229lllkpqdnnnjfddd^--**gg{{/ttxxttxt9gg2gtxxr2///////////299k=",
"*==//~!-~-==-kklkllllpploooooooooooooooooolllllllllllllklkg9922222229pllhpodjnnnfddd1db~-rl{{qtxttttxt2gg9qtxr22////////////9gh=",
"*=={{~di~--=-2llkllppllloooooooooooooooooollppllllllolllkkkkgbbb2222/9gklpoifnnjfffdfdd-ltsprxttuuxtsxl99qttr///////////////2gg*",
"*=={{[jm^-==-{kllkllllplplooooooooooooooooooloollolllllkkkkkkgkkg922//[[glph!fff1[dddd[-sttxxxxtttxskstrstts2////2oqqob/////229*",
"*=-{~[nj[-==--9kklklllllploooooooooooooooloopoooooolllllllllhhlkkkh9922^/29[1fff!-{2[[-/tttxttttxxtsrtstttt9////2qqqqqr9////229*",
"&=-^~dnm[~--===hlkllooooooooooooooooolllppllllklpplllllllplkhklkkkhkg94499[fffff1!--%%*gtttxttttxxrhhqttttg///2/9qoqqqq2///gh29@",
"&=-~~[nj[^!~-=={hllkoooooooooooooolllhg922//{{{{//2glllllkkkkklkhlphlkk44gdfjjnjjd!^*&&htttttttttth99qtttg//////9qooqqh////2222@",
"@-~d11ffdid!~==={9llooooooooooollkg2/{{{{{{{{{{{{{{{9lllklllpllkkkkhklkkk2|fjnnnf1[^&&&2sttxxtttttp2gttr2////////koqob^//////2/@",
"@-dijjffjjjf!-===-/hooooooollllg/{{{{{{{{{{{{{{{{{{{/hkllllpplllllkklkhkk2[fjfjf11[{&&&2sttrstttssssttl///////////29^^^//////2/@",
"%!ijjjjfjnjj1-={={--2lookllkg/{{{{{{{{{{{{{{{{{{{{{/9hghlllppllplllllklllimnj1[[1[^*=&=gssp/2lttttstr9/////////////////////////+",
"@%1jjjjjnjnji-======--hllg2{{{{{{{{{{{{{{{{{{{{{/2222//{{{{//////////////[nnn1~![[--[[[9rs/222ktsrl9///////////////////////////+",
"@%!fjjj1fnjmi-={=====**2/{{{{{{{{{{{{{{{{{{{{9922/{{{{{{{{{{{{{==={=={={=~dnn1[[^--ifmmd{/22///2/////////////////////h2///2///{+",
"@*!jjnnj1fmmi~={{=={{=**-{{{{{{{{{{{{{{{{{{{{{{{{{{{{{{{{{{{===={{{{{{{===~1f!dd!%~dfnnm^///22///////////////////////////29///=+",
"@-[jnnnjj!11[--===={=****=={{{{{{{{{{{{{{{{{{{{{{{{{{{{{{{{{===============-![ddd!11fmnn[///2/////////////////////////////////*+",
"@*[mjjjjffmdd^-======******=={{{{{{{{{{{{{{{{{{{{{{{{{{{{{{{===============-~[[ffffffnnnd{////////////////////////////////////@+",
"+=-diff1fmmmmo/*===*********&*={{{{{{{{{{{{{{{{{{{{{{{{{{{{{=={{=========={{^2[dfjjjjnnnd-//////////////////////////////////{{++",
"+&*%%%%%dmmmih{&*&&&&&&&********==={{{{{{{{{{{{{{{{{{{{{{{{{={{{{{===========~2!%imjjjjf^-{////////////////////////{///{{{{==@@+",
"++&*****%!!!~-*&&&&&&&&&*&&&*&&&&**&**=============================**********@@@+^mmd1!!-=={//////////{{{{{{{{{{{{{====*****@+++",
"+++@&&&&&*%%**&&&&&&&&&&&&&&&&&&&&*&&&&*&*&*&**&&&&&&&&&&*&&*&&&&&&&&&@@@@@+++++++%%%--=====/{{{==*****************&&**&**@@++++"};
