/* XPM */
static char * wall_lamp_xpm[] = {
"128 128 64 1",
" 	c #181F1C",
".	c #29382F",
"+	c #233B3B",
"@	c #47422D",
"#	c #344E52",
"$	c #3C4F34",
"%	c #484F44",
"&	c #345648",
"*	c #235B64",
"=	c #2E5A57",
"-	c #3B6341",
";	c #2F7473",
">	c #6F654D",
",	c #8A5F40",
"'	c #5A6D4B",
")	c #74673E",
"!	c #5C6D65",
"~	c #4C744E",
"{	c #497272",
"]	c #3C7951",
"^	c #387A63",
"/	c #4E7465",
"(	c #537741",
"_	c #627644",
":	c #62823F",
"<	c #41908A",
"[	c #A77847",
"}	c #578D77",
"|	c #5C8C8C",
"1	c #49947A",
"2	c #599258",
"3	c #658B7F",
"4	c #78867B",
"5	c #53936D",
"6	c #698E58",
"7	c #798865",
"8	c #7B8C58",
"9	c #94865A",
"0	c #8F896B",
"a	c #72954B",
"b	c #82914D",
"c	c #6F976F",
"d	c #769A3B",
"e	c #9C8E4D",
"f	c #539F97",
"g	c #A0953B",
"h	c #799F94",
"i	c #63A693",
"j	c #8B9D79",
"k	c #8FA096",
"l	c #87AB72",
"m	c #8CAF56",
"n	c #AEA580",
"o	c #8BB184",
"p	c #A7AE64",
"q	c #90B2A5",
"r	c #AFB33F",
"s	c #C4AD67",
"t	c #A8B681",
"u	c #A4B897",
"v	c #D4B553",
"w	c #B1BEB2",
"x	c #CFC599",
"y	c #E2CD8B",
"  $$$$@   ..%!!!444444k/44!.    +%!!!!!!!!!!!!!!#%#+    +=33caa}i}}3&  .'jkwwwwwwwwwwwwwwww4. #{3333333qkkkkkwk!  +{|{{34{4kk|+ ",
" _btttt8 &kwwuucjj'jjjcjuuwu4 #kwwwwwwwwwwwkkkwwkwwww! =hqh~d~lallmll/ $'jjwwwuwwwwwwwwwwwww0+/h3{////{//{{{{3wk =##3{######{k| ",
"@84:abjt@-j~~-----~------7uwu #kk4!!!!!!!kwwkkk4!!4kw!.=};;;;;^ddmadm} $>777'0''>>0>>>''>0wwk#33/{//////{{{{=/3w+{#+{#!#####{*h+",
"$:j:albt$-~~~-----~~----~--ku.!!!###########!#++++#!44+=;;;;;;&(d(ic6}.''>''>>>'>>>>>>'>%>0ww=3///////////{{&./w+##########{{*k+",
"$:aaaaat'-~~~~c~~--~----~-!7u.#!############+++###!!!4+;;;;<|;=/;~dacc.b''>0>>>>>>>>>>'0>>>ww&h/////////////h/3w#*#*########|#*+",
"$a::::a8$~~~~~~~~~~~~~~~~~-~u.#!#####################k+;;<||<<<<;~a(al.:_77>>>>>>>''>>>>>>>0w&h}}}}}}}}}3/}}}3}w##*****##****{|#",
"$::::aat$~~~~~~~~~~~~~~~~~~}u.#!#####################k+^<<<<<<<<;/|/:a.(:'777777'777''0>'>>k0&3}}}33}}}}}}}}}}}q+#************|#",
"$aaaaaal$~(((((((((((~(~~~~cu.#######################4$^;<<<<<<<<|<|;6$:777777777''7'''77>>ww&3}}}}}}}}}}}}}}}3w+#************{#",
"$aaaaaab$~66666666666666666cj.###!###################k$aa1<<<<<<<<<||6$ma7777777777777777>0ww&3}}}}}}}}}}}}}}}}q##************{#",
"'8aaaaab$~66666666666666666c7.&#####=======#==#####{4k+-/<<<<<<<<<<||~$~_0777777777777777>0kw&3/}}}}}}}}iiiiihh3##*;**;;***;;;;#",
"'baaaada$-66aa6aaa6666666666~.&!==={{============#{#*k-d5<f<ffffff|||2::_7777777777777777700w&3}&}hihhiiiiiiiqh3+#*}{;;;;{;;;{|+",
"$a::aadp$-l66aaaaaaa6666l66l'.&====={{={{{===={{{{=*{k_-/fffffffffff|~$_77777777777777777700k+=hh33hhhiihiiii}h=++{/{{{{;{{;|;=+",
"@:__aaab@-66aaaaaalaaaallltt_.!{!{{{{{={{{{{{{{{{{{{{k$<<fffffffffff|f$a70777777777777777000w #&////3hhh3}//==== +#####&====#+# ",
".'_:_8_>.&-~~__(6_88888887_7$ 7{/{{{{{{{{{{{{{{{{{{{{k.<fffffffffffffi.(b0007777777777777000w  '6:m:aa'_-.$.......+++++.%%%%%%  ",
"  @@%%%%%!!!!!4!!&....%!&%%.  7{{{{{{{{{{{{{{{{{{{{|3!.|fffffffffffffq.'b8007777777777777700w $(:ad:aa:dama67777juj% )xxxxxxxxn.",
" .hhhhh3/////3hhkqkhqqkkuwww4.!33{{{{{{{33{{{|33||33|!./|ffifffiffiifi.aa8770077007777770770w$/~:a:(:maaa-$---''j7uj 9ssssse7nx>",
" .///////////////3k/}hjjj}juj.'j333333333{{333333333{#./<ff||iifiiffio.(mb8j0007000077000000w$/((:(-((_:ama'''7''77j.evvvvssunx9",
".&/4&/3////////3}34//./}}7jjc.'7jk3333333{333333333{k4 &cii3iiiiiiiii}.~~_bb8jjj0000j0000070k$/~a(-'$('-:('('''''77u%evvvvssssx0",
".&!@%////////3///}!}k&////%j}%'7'774jk33333333hhh3{!4% &65}}}ffiii}i}&.$''_(8jjjjj000000077nk$'(::(((((((((((((-~_(u%evvvsssssn)",
".//!////////////}/&/}}}}}cccc$.'78_-:674!333/!3/!{&=~dd:-((:dd(-&.... .-_8_870jjjj0n000000jwk$7($a((((((((((((((((_u%egvvsssssx>",
".///}}////////}}}}&/}}}}}}cjo. .':d:rrdd:__-$$&&--d((dddd:dddrrrda&++ .((88jn000njj0jjj0070nk$'('((((((((((((((((_ju%egvvvssssx0",
"./}}}}}/}}}}}}}}}//}}}cccccot$+bbdbrrbdrd:rpnxj7'4brrddrrrddardddrmk4+.-(807jn000j00jjjj000uk$c_((6(((::((((((((((8u%eeesssssss0",
"./}}}}}}}}}}}}}}}'/}cccccocct@%b'pbr('!'8b_g!0njnn7pgrarrrra&:&a(dlww#.-_b88jnjn0j000jj000nu>$~c6:6::::::::(((((:(8j.exesssssxx0",
"./}}}}}}}}}}}}}}cc/ccccccccco@#!7prrr8#!'!!!!!!!!{{b8rmrrr_:=$&##&'|w! -_mb'78bpjn7707jj70uw@.-'j6:::::::::::66668'u.9ggssssssx)",
"./}}}}}}}}}}}}}cc7/cccccccooj@%!_8b''7b8'!!!!!!!!!!b!/8rrrd=**/'#bd#4! '_'878''8jjj070jjjjwj@.~cj'_86:b:888888_'''jj.>eseesee9n>",
"./}}}}}}}}}}}}ccc'/ccccocooot@!b877747gg7!!!!!!!!!#!!!!8r~&=*==&//:bh# '-$aa6:_a_8'88777777'@ --~j_877_86::888887'7$ %)999n9e99@",
"./}}}}}}}}}c}ccoc%'oooooooott$>e'484447874!!!!!!!!!!!!!!rd==*****~/~|# $$@''$'$$$$%$%%%@%%@%  ..$&$''$''''''''::aa::d$$%%%%@%%@ ",
" %}cccccccccccccj>/jllloltttt$9n0084!00704!!!!!!!!!!!!!=b/{{{***=*{*{&  .%!44kkkkwwwkk4.  ++=={{{{33333hh{33{&(~:mmmmdowuoh3=#+ ",
" ../cccccccccccjt.&jllttltttt@9n000400000044444!!!!!!!!8b/{{{{{{{{*/k4 .'ujjjjcjuuuuwwwk ++=hqqhihhh3!+3h=|hh33/-mmmdrmmmmh3q3= ",
"+!/!%/cccccccjt9>.%8ttttttttp@nnn0000000077444444!!!!!!/b'/{{{{{{{*b3k -c6666666(((:66uw.++{{;**;;==={3{3==*==/:aa&&:ra2mmwwww3+",
"+//3333477ojt'%/hkk4078tttpps@9>000000000'a'474444444!!4p{{{{{{{{{//{k '666666(((((((6ow.++;5c;*==;;=={======*=&-d6&-:~/~m}hqwq+",
"./33}}33hhk4% //}}}kuuk%.>9e) 9nn00000000brb0000744444!4b{{{{{{{{{{{{4 '66666(((((66~'6w.+==;^;;==^;=={{======*==(~**~:~=///}kw=",
"+/3}}}}}}hhwk+/}cc337j7kk4j00 9nnnnnnn0nn8e0000007774444{{{{{{{{{{{{{% ~66666(((((66(66w.+==;;;5^;;;;;;==========&/*=(&==*=5m;w!",
"+/3}}}}}}h}jh#}cccjjjjjjjkjkn@9xxnnnnnnn9000000000074444378{{{{{{{{{4! ~6666666(((66666w+#==;;;;;^;;;;}=========;===&&=***==2;w=",
"+3}3}}}hcccjj.}cjjjjjjjjjj7jn@enxxnnnnnn0nnn0000000074433/{{{{{{{{{{h! ~66666666((66666j.+=+=;;;;;;;;;;;==;;;;;;;;;;;=*;**^2}=w!",
"+3}}}}hccccjj./j7jjjjjnnnnnnx>s0xxxxnnn9nnnnnn0000000443/|{//{{{{{{{{# _66666666666666cu.+|<==;;;;;;;;;;=;;;;;;;;;;;;=;**=&^;;q!",
"+/}}hhcccccjt./4jjjjnnnnnnnxy>eenxxxxn9nnnnnnnn000000443333{67{*{c{*{+ _666666666666666j.+;<^3==;;;;;;;;3;;;;;;;;;;;;;;;;&&;=^q#",
"+!33hccccojot.!j7jjjtnnnxxxyy@9ssyxxx0xxnnnnnnnnn0000443t73|{3{{{b/{=+ _666666666666666u.+=;;|;;;{=;;;3|3{=={{{;;=;;;;;;;=;;==|+",
" #333jccjottn.&7jjjntnnnxxxys@)sssss9nxxxxnnnnnnnn000043333{{{{{{{{=#. 6666666666666666u.#=;;;;;;|<<;<;;;;;<;;|3;33={{33|{{{{33 ",
" #!jjjjjnxyy9 #7ttnxxxxyyyyse @9ssyyssyyyssnnssse9999900'!!%!&'&&#%%.. 6666666666666666-.#=<<<<<<<<<^<<^<<^;;;;;;;;;|;;;;;<<|hh&",
"   ..%%%>)))  .%0nn9nnsneee9@  @@9)))egee_'$$''''''$....%............  6666666666666666$++=<<<<<<<<<<<<<<<<<<<<<<<<<<;^^<;;;;;q!",
"  .!&4!!7!4jjj77n0%.'88ttee' ),,9s9999)),,,,)@@   #=//;33{33kkk4kkk4& .'_66666666666a6a(++=<<<<<<<<<<<<<<<<<<<<<<<<<<<<<<<<<<<q/",
" &/ujjj7j}~cjcjjjt76pppyyyye)syyyyyyyyyyyyyyys[@ 'jtxuuuuuujuuuuuuuuu/.6c66666666666:am6++=<<<<<<<<<<<<<<<<<<<<<<<<<<<<<<<<<<<w!",
".&^/&7u}]]]]]]]cct']mpppyxxn[syyyyyyyyvsyyyyxxx,@sytcc5511cc}1^1^^^}uh.6c66666666666:a66.+{<fff<<<<<<<<<<<<<<<<<<<<<<<<<<<<<<<q3",
"./&&.-~^]]]]]]~c^t'2aammmpy9ssyvvyyvvvvvvvvssyx9@st5555511c51115^^i}}4.666666666666aaaam-&{fffffffff<fff<<<<<<<<<ff<<<f<<<<<<<q!",
".&^^&^^^}]]]]]~5ct_mamammpy)syvvvxyvvvvvvvvsssn9@eocc}}^15511111^^1}}h.66666666666(a:aad::&oiffffffffffffffff<<<<f<<ff<f<f<=;fq=",
"./^^^^^^]]}]]]]~ct8aaapmmpe[yvvvyxyvvvvvvvvvvyyn@9t8cccc555111111^^}1q.6666666666666(aaa_:&mlifffffffffffffffffff<ffff<fff&.#<|#",
".^^^^^^]]]]]]]}]]t8aaapmpy9svvvvyyyvvvvvvvvvvssn)xtlllc55551111111111q.6666666aa666aamdma+=/affifffffffffffffffffffffffffih&=|==",
".}^^^^]]]]]]]]5~]ttaammmpy[yvvvvxxxyvvvvvvvvvsyn)xtlloc55551111111111h.'666666-dll6~~mmd$.=~5ffffffffffffffffffffffffffffiwh/#{=",
".^^^^^^]]]]]]]555lp8bbbps9[vvvvvspxyvvvvvvvvvvss>xtllloc5511111111111h.&6666666amm6a-:dd(d&+-^<fffffffffffiffiiiiifffiff}/&#{<;#",
".^^^^^]^]5cc~-8tt8txnnn0)@[vvvvvytxyvvvvvvvvvsss>xtlllocc5511111111<<}+$'666666~amam:&$($d(&+&=/;;5};;;;/}iii}33//={==++++#;<;=+",
".^^}]]]]~-'7nnnnntxxxyxxn@svvvvvypxyvvvvvvvvvvss>xtllllcc511111111<<<q.&'$~'~~__(aa$.(dddmd-++((.++'ma(&&:b&&+++++#####++#+++++ ",
".^^55~--7ttttcc66ltpp8pxx@sssvvvypxyvvvvvvvvvvss>tlltloc551111111<<<<q........++.::$&~adddd:(-$   $ammmdamrmma....%>%!!>%%%%%%  ",
".&&///6666666666lbbpppyyx!0000nnuuwuunnnnnssssss>tllllocc51111<<<<<<<q..4kkkkwwwwwukwwuucququww4.._a---amaama6@>0n,,00n0nwnwww0 ",
"./}}552262266666lltppppxx@).+   .++#+++!9svvvss9>tllllocc51111<<<<<<<3.&uuuujjujjjjjjuuuuuwwuuuu!.~^^^:((2~m5'>,,,,,,,0,,,,,0wn ",
".&155552222666l6lttpppyxx@9#9e9.   +@e9#svvvvsss@tttoooc5i1111<<<<<<</./cc666666666666666666ccuu7&/^^](2]]]am$,,+>,,,,,,,,,,,,n@",
"./555555c2666666ltbppppxx@)>e@ee ++%s'0)9vvvvsss@tolocccc11111<<<<<ff3.'666c6666666666666666666u7&}^^]]]]adad',,>,,,,,,,,,>#@,n@",
"+^555555522cccc6llbppppxx@e%s99s ++9s0e%evvvssse@joooc15c11i1<<<<<<<<q.~cc666666666666666666c66cj&}^^^^^^-~~~&,[[[[,,,,,,,04>,0@",
".^555555555clcc66888ttjjn@9)%>ee.++ev9>9vvvvsss9.%'jjc11c11f1<<<<<<fi3.jcc66666666666666666666cuj/1^^^^^^^^}c&,[[[[,[,,,,,,,,,n%",
".}5555555552cccccc7777/4j@))))))+={0ssvvvvsssss9.nj007}111111<i<<<<<<{+ccccc6c6666666666666c66cj7&}11111^^^}i&,[[[[[[,,,,,,,,,n>",
"+}1151155555ccc//////!!!/@)))%++#{h3h{evvssssss9.ncii/43//11<<<<<<<<<=+clccouc6666c66666666666ou7&111111111^^&,[[[[[[[[,,,,,,,n%",
"./111115555c5//&&&/&=#==!@)))>@.    @>)svsseees9.7}iii}iiih3}<<<<<<ff=+coocooc6666cccccccc6666lu//}11111111113[[[[[[[[[[[,,,,,n%",
"+///1}11155}/&&&&&&===#&&.@))))>++#%)))essssse[).;}1iii1iif<f|3{<f<<<=.coloccc66clccccccccccclou/&c5551111151/[[[[[[[[[[[[,,,,n@",
"+&~+}11115}/&&&##.###++#. @>@))).#{>)))esssesss>.={;<<<<<<<<<<<{<<<<3#+'cooocolcllcccoooooolcoou4&55555555111![[[[[[[[[[[[[[[[n@",
" &~%/1111}^/-&&##&++#+++.@@>>@)>%={))))svssssee> &===;;;;==;<<;;{;<;{+ 7j7ocoooooooooollooooloou4&5555555555i!,[[[[[[[[[[[[[[[n%",
" &//&&&&///&&&&&&+++++%.  !@@@@@%={>)))e[)9e)))@ +===================+ /joj'ocoooooooolloooooocu!&5555555555i%)[[[[[[[[[[[[[[[9@",
" ...'''&'&&&&.........      @@@@.={%@@@@@@@@@@    +++++.$$~ba6'''-+++  #7ooojooooooooooooooooocu!.55555555^5q.>[e[[[[[ss[[[[[[9@",
" ..%_bblll077jkjk444!%    ++++++#{3{{{33k44!+  $~_~-(:::dddmdmppppl4!. #+joo7ooooojoooooooooo7cj.+//55}i55c}/.@[[9ss[sss[9[[[[9 ",
".$~6aam_(ml887jj77jjju4. #==={=##||hkkhhiuww3 $llllaam((:dd::mmpmmmtuc.+++&&&&//'/77'/''///&&&..+++/&&&&&#.++  @@@))>)99@>))>>@ ",
"%~_6((a6'_6:b_____7__7j4 =====&#+{3|<3|<1<hwk $l~ca:d(--((:mm:dmm:dmjo.  ++   ++!!##!4kk4!44444!!+++   %!!%.000000000000>'.%%@  ",
".'('$'''''_-'_______7j8j &=#==&&+{3{<<3<<<1qh.$--&7~----&&:dmaaaam:mpj.+==;={{hqqqhhhhhkkkkqqwwwwwkk+ )9nn99eegggeeennnntxn0xu7 ",
".'-6_______________'%_8j.=;;==&&&+#<<<</<11ih 'c~--~-]]]$&a_($drrma~mt.+==3|*******************{|{3w|.9eee)egggggggggggegetn0xt@",
"%'_mb______________77_8u%/};;&&&/{|<<<<f!}1ik 3~-----]]]]$$$-&$d:::amt&+{h|{|||********************3k@9ee)))ggggggggggggggge0>e)",
"$8'$8_________________ju%=;;/=&&={|1<<1<<h3<h 7~~-]]--]]]---]$.$&--(a:.+{*;**;{{;;***************!*{h.>00ege)ggggggggggggge)000@",
"'8_'_______8__________8u%/1<</&&=#=<11<<<ffh3.~]~]]]]]]]]]]]]]-]]:(aa/&*;;;****;*****;;**;;*****|=*;q@9ge9eggeeee)0eggggge)nnex8",
"'8888__8___8__________8j%/111^=&/;<<1<<<<ffik.~]]]]]]]]]]]]]]]]]-_a~~u7=^;;;;********;;;;;;;;***;|;;q.egegeegegeeeen))ee99egggt8",
"'888j88888888888_____88j%{ii1}/=/}<<ff<fff<<3.-2]]]]]]]]]]]]]]]-&$(]]u'~a6;;;;**;;;;;;;;;;;;;;****;;h.eggggggggegggggeggggggggp9",
"'8888888888888888888888j%{iii1//^1fffiffff<fq.-222222]]]]]]]]]]--]]]]}-=^;;^;;;;;;;;;;;;;;;;;;;;;;;;;.gggggggggggggggpegggggggse",
"'888888888bbbb88b888888u%/|<ii1}1iiifffffffiq.-2222222]]]]]]]]]]]]]]ac'/;;6m^;;;;;;;;;;;;;;;;;;;;;;{;.ggggggggegggrgggeeeggggppt",
"%88888888bbbbbbbbb88b88u%/ii}iiiiiiiffffffffi.-222222222]]2]]]]222](:c(a}acc;;;;;;;;;;;;;<<;;;;;;;;hh.eggggrgggggvrgggggpegggggn",
"@788b88_bbbbbbbbb8bbb88j%/ii}iiiiiiiiiiiffffi.~2222222222222222225]]]aaaa5;;;;;;;<<<<<<<<<<<<<<<;<;hh.egegvrrggggvrvrggrreggggge",
"%'88bbbbbbbbbbbbbbbbb887%/iiiiiiiiiiiiiiffii}.]22222222222222222222~~a:6^;;<<<<<<<<<<<<<<<<<<<<<<<<q|.)gerrvgrvvrrrrrrrvggegrgp9",
"$'_8bbbbbbbbbbbbbbbbbb8'%/iiiiiiiiiiiiiiiiiii.]222222c2222222222222~-$$am5<1<<<<<<<<<<<<<<<<<<<<=#+h;.@grrrgrvvvrrrrrrvvrvge9ep@",
"%788bbbbbbbbbbbbbbbb8jjk%/iiiiiiiiiiiiiifiiif.-2$222c2222222222225~22&$/6mal<15f<<<<fffff<<<<f<<<{#;;.)0ergrrvvvrrrrrrvvrvvvg00!",
"%788bbbbpbbbbbbbb8'78uuu%{iiiiiiiiiiiiiifiiif./c}2~222222222222225c]~/$-~m55m5m55ifffffffffffffff<#;=.'00errrrrrrrrrrrrrvrvg)00@",
"%$88b8lalpbbbbbb878jjt8j.=iiiiiiiiiiiiiii}}i} $2ck&22222222222222c2-c~.(:((/66^}<1<<<<<<<<<<<<<;=#=++ $$7>)eggggggrrggggpe))09)@",
"%%88b_'6_bbpbb8'788t888'.&}iiiiiiiiiiiiii}/{= .]2ck~2222222222222]c~6- .&--&(-$-(-&===&&++==++++++++   @@$$@@@$@$@@$'))@)_@@))> ",
".''78'_66lbbp8't88888''' &={iiiii}i}iiiiiii}# .$~(5&/~~2222222~~-$-$$&  ...&&&(~~~//&&+.  .&&/3333hhhhh3//3//&+ +#{4kkkqkkkkk4! ",
" %%.%%$_''____'7'''''$'% .&/&==&==&=&=&&&&&.   ...............$$$....   &/}cmlllluuuuuuh+ /55}^551}iiioouuuqquh+;hh||||||||||qw!",
"  @@@'bmbb__8bb_@@))>>>)>>>@     $'88bbbp8pb''%%'''%.     .%%>>>>444!. $~]2a]]]]]^^^^5ou/$__'555551}c^65}}iuqqi=;|<3>;<<<|||||hh",
".)9enssness9essssxxxxxxxxxxxx>.%'_8b_88bbb88t8tttttxtu7. %0000000400wk.&62]]]]]:a]^^^]]o/'/~^55555155}^11111qwq/;<<||<<<<<<<<<|k",
"@))eeeeeeeeeeeeeeeeeeenneeeex9.7''''_:_::8_______788jxx' 0%>%%%%%%>%%w%$(:2]]^]](2^^^^]o}-^1555555&/^^1111111}q=;||<<<<<<<<<|||q",
"@))99eeeeeeeeeeeeeeeeeeee9nesn.''_'______:8:____888_88tj.>!%%%%%%%%%!04$2]]]]^]]^^^^^^55}&^5555555&1111111^111i={f||<<<<<<||||<h",
"@)9eeeeeeeeeeeeeeeeeeeeeeeeeen.''_____bb8::b88__b_88b8jj.>>>%%%%%%%%>00-2]]]]^^]^^^^^^^5/-6651155551111111111^}=;<<<<<<<<<||<<<h",
"))neeeeeeeeeeee88eeeeeeeeeeeen.'_'_'__bb8bbbbb_8:____88j.>>%%%%%%%%%%%>&aa]]^^^^^^^^^55o/&6~-551}}1}1111111111}=;<<<<<<<<<<<<<<h",
"))eeeeeeeeeeeeeeeeeeeeeeeeeeen.'____(bbbbbbb:b:b_______7.>>>%%%%%%%%%>4&]]]]^^^^^^^^^^^1/&/^/}1}555}}}111111}1i&{<ffff<<<<<<<<<q",
")9eeeeeeeeeeeeeeeeeeneeeeee99n.____(:bbbbbbbbbbbbb_(__7n@>>>>>>>%%%%%%>&^^]]^^^^^^^^^^i1/&/1}51555551111155}11i&=|fffffffffffffh",
"))eeeeeegeggeeeeeeeeeeeeeeenn0._8__(:bbbbbbbbbbbbb(_(_'7@>>>>>>>>%%%%>4&5555111^^^^^^^11/&}51/}155555111111111i&=|{ffffffffffff3",
")>eeeeeeggggeeeeeeeeeeeeeeeee9._:___6:bbbbbbbbbbbb(((_'8@>>>>>>>>>%%%%0&5555551111111111^&/111115555111111}111i&=|f{fffffffff||{",
"@)eeeeeeeeeeeeeeeeeeeeeeeeee9)._8:_((:bbbbbbbbbbb((((8bp.>>>>>>>>>>%>>>&5555551111111111}../^55155551511}}}5}}/.={ff{hffff33|||{",
"@)>9999eeeeeeeeeeeeeeeeeeee9>>._:6((::bbbbbbbbbbb:8((:bp%>>>>>>>>>>>>>4&5555555511111111i ..&&&&///^////}//}//& +#={={{{{={{{{=+",
"@>>9e8__8eeeeeeeeeeeeeeeee90u%._8:::::bbbbbbbbbbbbb(((bp.>>>>>>>>>>>>>0&55555555111111115..%>4444444444444444%      ..%%%%%%%.  ",
".>>@>)__8_9))eee9999)9ee)>)'7..'_(:88bbbbbbbbbbbbb8~~~$8%>>>>>>>>>>>>>>&5555555555115251}$>>0>>>>>>>00000000wk 4uuj!jjuuuuuuuuj%",
" .@@__:_b___bmpb'aa'_@@@%!!!! .'_((bbbbbbb:bbbbbbbb~~bbm'9>>>>>>>>>>>>>&5551111155111652}@0>>>>>>>>>>>>>>>!!>k.7777777__''''7uu!",
" +&'ma6mmmamammmmmok8_./3hhhh4.''((:bbbb::bbbbbbbbb_$abm_>>>>>>>>>>>>>>'m555551111111~25}%0>>>>>>>>>>>>>>>4k%k.77777777777'7''u7",
" &-aaa:a(aaaa('-66uqw!.33}}}/3.''%__':bb:::bbbb:bbbb_~$bb>>>>>>>>>>>>>>&5555551111511115c@000>0>>>>>>>>>>>>4>4.4777777777777!'u7",
" &6$$:aa'-:($$$aa6mlu4./}}}}}3 '_8''':bbb::bb:::bbb_(~$b_'8)b9>>>>>>>>@&]]55551111115555c>00999900>>>>>>>>>0>>.j777777777777j777",
" %&$:a$_(-$$$~($6m6lkk.}}}}}}3 $(:''_(::b::b::::666~$~-$_'8>>89>9>>>>>.$5255551111115]25~%0099990000000000>>00.777878877778777j7",
".&$-~6-'a:----.$-:a63k./}}}}}3 .$_''!''_'_8__''_''$&$$.$'_:mmmmmp0>>>% &555111111111155~~%0000990000900090>000.777878888887777jj",
".&---_-$$----$$$$$-c34.%&////&   ....    ..$%!!!!!!!!!':_bmm::mmrmmb8  $5^5111111115l55]}%00009999999999909990.7j788887788777777",
".----66---------$$-ach. #{{{|{|{||||||{#+  #333/333333!3/!c/!&:dmmmuw! &55111111151]25]1^>00000099999999099990.7788877cc77777j7!",
".---$$~------------'lh.#|||hhqq|hqqqqqqqq# !hkh333333333/!/{&''~amblww &^1}1111515555111/>000000n9999999999990.jjjjjjjcc777777jk",
".'---$~-----------$-~h.*******{***{{***{q{+33/h3333333333{3/!&&/''7'ww.&^51^655ml^511111&%000n000nnnnnn0999900.jjjjjjjjjjjj7jjjk",
".-_------------------k.#{*{***********#*{|.3hhhh333333333333!//&!33/kw.&~11}~56m5111111}..000n0n0nnnnn0099990>.jjjjjjjjjjjjjjjjk",
".-:~-----------------k.#{*************{#*|.33hhhhhhh33333333333333333w%_aa6c6aallc151^/&. %%%>>00>>>000000000@.jjjjjjjjjjjjjjjjk",
".~(------------------h.#*****************h.3hhhhhhhhhhhhhhhhh3h3333h3w%_:a:a::dmm:d_(b.$$$$. ...%!!444444444!..jjjjjjjjjjjjjjjj4",
"$a6----------------~~h.*;;***************|.hhhhhhhhhhhhhhhhhhhh3hhhhhw%$(mmmmmammmaammmpptplb$.!33/{{{{{{{{4q4.jjjj7jjjjjjjjjjj7",
"&(~~------------~~-~~h.**;;**************|.hhhhhhhhhhhhhhhhhhhh3hhh3hq%($-($aaaaam:daddmaa(mm_%4{{{{{{{{{{{4!k.7jjjjjjjjjjjjjjj'",
"&~(~~~~~----~~~-~~~~~3%*;;;******;;;**;;;;.h3qqhhhhhhhhhhhhhhh3hhhhhhq%--$(:(a(mmmmmdddddda:a:&{{{{{{{{{{{4{{4.'jjjj7jjjjjjjjjj%",
"&a~~~66~~~~~~~~~~~~~~h%*;;;;***;;;;;;;;;;;.hqqqqhhhhhhhhhhhh33hhh3hhhq!$(_ad((((ammmdmdmmdaaab&{{{{{{{{{{{{{{4 %'77''77777777'%.",
".((6(~((~~~~~~~~~~~~~3.*;;*;**{**;;;;;;;;{.hqhqqqqqhqqhhhhh33hhhhhhhhw4(aa:ada:$(:mmmmda:daaaa={{{{{{{{{{{{{{! %/333/33334kkkhh%",
"&6a(~~~~~~~~~~~~~~~~~h%*;;;;;;;;;;;;;;|||{.hqqqq3qqqhhqqqhhhhhhhhhh3hq4:aaddd:(($-aamm:amdaaab={3333333{{{{333.3hh}}}}}}}}}}hqh4",
".'6~~~~~~~~~~~~~~~~~~h.;|;;;;;;;;;;||||||{.3qqqqqqqqqqqhhhqqqqhqqhh/3h!(a:ddddd(:-((md::bddaab&3{3|||33|333{{3./}}}}}}}}}}}}}}k3",
".&66(~6m6~~~~~6~~~c~~3.{;;;||||{|||||||||{.%hqqqqqqqqkhqqqqqqqqqqh33hq!-adddddddd:a(:mdddddaab&{33||||||333333./}}}}}}}}}}}}}}/3",
".&~~~a~a6a6~~666l~c}/&.*|{|||||||||||||||{.!4!hqhqqqhqqqqqqqqqqhqq4hh/!-:dd:ddddddd(-::ddddda8=3{|||||3|||333|./}}}}}}}}}}}5}'!3",
"+&m~a~~~mm6a6aa(c~~/3& +|=||||||||f|f||{=# &hq4%qqqkqqqqqqqqqhhqqhhqhh&-(:dddddddddddd:dddaal_#f33||||||33||||.&}}}}}}}}}}}3!h}/",
" &_a6~~((m6a6a-&&&%+&# #*||{||||||||{{{||# %!3h!.4!qqqqqqqqqqqq33!3/&/ $:aaaddddaaddddddaab:($+3f{|||||||||3|| &}/}}}}5}}}/!}}}%",
"  +.#%&&+&$&$'.+.+++.  +##==={||{=#####++  .%##..&%!!%!///!!!!&%%%&&&. .$$$-$((-($$_((_$$--$$  #{{{3|{{{{{{==+ .&&&/////&%%%%%% "};
