/* XPM */
static char * a_set_of_128x128_pixel_textures_depictin_Apm9qD0QTV6SkD83ZsLLtA_nr_HrCwpTYSUuBhbjwdarg_xpm[] = {
"128 128 64 1",
" 	c #1E1A16",
".	c #311C15",
"+	c #343022",
"@	c #34302E",
"#	c #452D23",
"$	c #4E2E1C",
"%	c #3B361E",
"&	c #643326",
"*	c #5B3B28",
"=	c #464428",
"-	c #57423A",
";	c #51483E",
">	c #574A30",
",	c #6A4932",
"'	c #57511F",
")	c #525332",
"!	c #804531",
"~	c #714C28",
"{	c #A64A31",
"]	c #6C5C3E",
"^	c #62643E",
"/	c #775D4D",
"(	c #805C42",
"_	c #9D5439",
":	c #885C33",
"<	c #676830",
"[	c #6F634F",
"}	c #6D635C",
"|	c #736531",
"1	c #945A3B",
"2	c #816437",
"3	c #766B20",
"4	c #7C694B",
"5	c #B66446",
"6	c #A67138",
"7	c #8A7758",
"8	c #C06940",
"9	c #A3714C",
"0	c #90784D",
"a	c #848135",
"b	c #9B7C3C",
"c	c #86824C",
"d	c #8C7E6C",
"e	c #9F865C",
"f	c #988869",
"g	c #BE8332",
"h	c #BB8445",
"i	c #B7924C",
"j	c #C48F65",
"k	c #9D9E48",
"l	c #B1966A",
"m	c #A79879",
"n	c #AD9F72",
"o	c #CE984E",
"p	c #BFA57A",
"q	c #B7A787",
"r	c #D3A84B",
"s	c #D6AD66",
"t	c #BBBA65",
"u	c #BCBC4F",
"v	c #CBB589",
"w	c #CAB999",
"x	c #CBBFA9",
"y	c #E3DAC3",
"=++++<<==aka<kka<aa<;^)@;@@;@@;;[dmqm;;};ooooo:{{{{{{{{{{{#;;;;;hoooo6>%+}x444444]44m/4]44447xxq:66eelle(!!!!!~22222%====%+%%%%+",
"+ @=)<a<)aa))kkka<aa;;;;@@;;@@[[dmmxm;;;;ooooo:{{{{{!{{{{{#;;;;;hoooo6++mfd444444444m[444477fxxf:66lllle(!!!!!~22222>====%+%%%++",
"++ )ak<<)='+ <<a<)))+;d[@@[[[[[7dmmxx;;;;6oooo:{{{{{!{{{{{#@@;;;6hooh6;mm444444444444[44447mmx/*66:eeeee/&!!!!*~~~2~%%%%%++%%+++",
"@+ =)<)++        %)')[m[;[[777777dxxx-((*!!!_!&>>>>>,66666~2222,$&!!&$[f7444444444444m44]mqxq[+;;--&&!&!,:::11*$**$*,::::~#*****",
" + +)<a=+    %+  ))++%dd[dffff7fffxmd>jj({{{{{&=====~ggggg:66666&___!/q77777774444447md44fqxq+;}}}-!!!!97e9666,##*#&16hhh6######",
"    +)<<%=  %==% +=...[mmdmmffffffd[;,99:{{{{{!=====:ggggg:66662!__!&/q077777777777777d4777d-@}}}};*/mxxxyyq96,####*1gggg6######",
"   @)<^)<a<)+<ka......-fmmmmmmmmmd} .(99({{{{{&=====~ggggg:6666~&!!!$mf000777777777777d][ddd};}}};@dxmmm77fxq1,#####1hggh6######",
"@=)=<<)<kuak<kkk<);d}  [dmmmmffd;  #,:::,,~~~~*4222(*11661*~~:~**!&.}we0eeee7777777777[dq7fqx;}};@df7444477fx4,****&*1111!-,*,,-",
")<<^<a=<ku<a)<ak<||[md@;ddd[[;@ .$&2isiie66b66~6ggg6:88888&&&&!!15_}xeeeeeeee7/7f7ff7]dfffemx;};;f7777774777mw,!_!!_&!!!!!/4777(",
"^=ak)a<a<kaa'+<<>|a'4mq} ;;+   .&_!essssb66666~6gggg188888&&&!!!!_mqneeeeeeeeeeefffe47fefmfmx@dfee00777777777x/_____&!!!!!/4477[",
"=)<a<))a)<aa%+%%>]]'''7m      #&___bisssbb6666~hgggh:88888&&!!_!!mqlllellelllleleef77eeeeemqx[weeeee000000070qd_____&!!!!&/7477[",
"<a<<a<));<<=+=))))>]'''f;    .**,,*420e02~~~::*:222:*11___$&&&*$,lllllllllllllllee7feeeeeelxq4lleeeeee000000fqd&!&!!$&&&&$--->;#",
"<a<)aa)<)kkc%>))]]]]]''m+)+)c%]]]((!_555_96hhh9__5551jjjjj>^)^)>~lppppnnllllllll7fmlllllllqxq]pllleeeeeeeeeeqwd91999,:::::!!!!!&",
" <<+)<)%)<<<]>>]44444|'q^^)c^>2222]_{{{{{6hhhh:{{5581jjjjj>))))+1lvvvpppppnpppe4nlllllllnlwxd*elllllleeeeeeeeq(16661,:::::&!!!!&",
" @+   @@@@;;]]444444442f^=cc>]2222>:5555!6hhhh:{{555(jjjjj>))^=.~9pppppvvppppp7mplpllnpqqpwxx#(el0ellllllmelll,11911*~~::~&!!!!&",
"=    @@@@;;[44/4444444|ccc<tttc^ccctttte,:6666:_____*9jjjj>=))%.*19911999((9e7vppppvppppwwqxq #,,(0lnplllqqll7*1111~*~~~~~&&&&&&",
"= @   @@@;[;444]4444|4|cnttttttttttttvtv~(1___1issss(_____!1__&$$$$$*$#... .*pvpvvppppppwqwxx ... .(lppppllle*#!!!!!*&&&&&&!!!!&",
"  @  @@@@@;]44444744|4<<'aac<3aktnkktyvt)~55_51sssss955555_555&&&&&&&$#&&&# (lpvvvvvpppvvwwyx.>>>%#*eppppple*#*!__1!&&&&&&&!_!!!",
"@<=+@@;;;;@>444447444|''<<<'<<<<%'<aayyn]__55_1sssss955555_558!&&!&&!&&&&&# 1pvpvvvvvvvvvvwxx.>%%>##,ppvppe,.[,!___1&&&&&&!!!_!!",
"akkk@@[]][[44447744777|''''''cktc<<<cnvv0!____(sssss955555!555_!!!!!!&&&&&#.!jlppvvvvvvvvvwyx.#>>>%##(0ee0*.-[-!1_11&&&&&&&!!!!!",
"auak>@@[44]44477444444'<''<'''=<<<<cc=nvcn((((,7eeef-/////,_1_1!---}}-((,-#.#$**,:vvvvvvwvwyx#$#######**#.++>)-(!!!!*,(,(,-}/}/-",
"=ka)>;@;44444777774^^|'||'''<<c<<kc<<avvvn1___!eelle[d;;;}!55555;;;;;;h6:**#$&&&#~lvvvvwwvvyx&!&&&$,~~,,#%+%^<]&&!!!,:::::-}}}};",
"@;+@;][]444447777774^4<||<''')<<')<<aakvynb___!lplle[ddddd155555;;;;;;ooo2*#&&&&$,lppvvvwvwyx&_1!&#,~~~~*==)^^,!((!!*::::~;}}}};",
"++--[44444444447774]^]7''''<''<''=33'cccvvk:1_!llppp[ddddd155555;};};;iooo*#&&&&&,e99jlvppff7!1__!#,~~~~*=)^^^>!!!!!*~~~~~;}}}};",
"@-->/4444444]')4ff7^474|''''<''33'333=%<tvvn2(>4]eee[[[[[[(99999]777d[77ee/#----#$!!!!!~~~!1(*/((-.#**,,*]]]]]-,*,~*),,,,------;",
";[>]444444774]]^4f7777|'''||3333333333'kakatvnnkktccc7[[[dessiiiirrrsi}}}}};///,,#$$$$$$!11hs)^^^^%##&!11jjjjj(!!|aa^;;;;;,~~~~,",
";]444]44447444]^)4fffff''|||3333333333''3<a<kkkkttttkk^[[[bsiiiiirrrri}}}}}}mmd,,#&&&&&~:6hss)^<^^)#&!!!9jjjjj(!,<aa);;;^+,~~~~,",
";/4444]4474444^^^[fmmm7]|||2b33333<33333333'a'<)akttc^cc[[brriiiirrrrh}}}}}}mmm/,#&&&&&~66sss)^^^^^&!!!!!(9jjj(!&+^kk^;^;@,~~~,#",
">444444447774]]74]7f7mm4||22ba333333|333333|'3<ccakttcnt^>>iiiib2iooo2-}}}};dddd,#&&&&$~9isij>]^^^>&!!!2|c<ie(,]^<ckka^<<=*~~~'<",
">44444774777447)]]^77f72|2200a3333|33b00333333')c)'ccvcb552eelle[dddd[15555(hjhhh4}}ddd)ccccc9jjjjecacmxxyyyyyyyxxxxxwttnkkkkctt",
";]447747777777ckcackn72222000aa3333bbb333333a33<)<<'<wvb552bbibb[^^[^[_55851hhhoh4}}ddd^ccccc155551<<^xqqmmmmmfff777^aua7tttttkt",
";4477747777777)kkuckk^0220eeb3333b0enlaa3333ba3a33cccxd9552bbbbb[^^^^[_585516hhhh(}}ddd^ccccc15_1_1])mqmmmfff7ff7^^[[=^^^<kktk<<",
"[777747777774]+)kk<ukka0000eebbbbeenneb00330a3a333|^cxf155]b00bb;[[[[>_555516hhhh(}}}}})cccc<1__1_!=>qmmmfmfffff7[[[)=)^<aa<^)))",
"[7774444777[]]>)<k<<aacccenlnen00eemlea003303bb333|cnvw119dqmmqf[[[[d[lllll70eeee799999]77774999991>]wmmmfmmff77d[[[)))<<===%=<a",
"[77777[77774]]])<ka<)acccnqnqwqqnlqqqme00000000333|||cf_55evpppp>^^^^)sssssebibpl988555^cc<^^15555_>,wmmmmmfff77dd^)))=a=)a)=%^a",
"4774477774>]])]>%akuuuk^ccmqqqxxxxxwweeeeeee00b333|cmq[_55eppppp)^^^^>sssssebiiii955555^ccc<^155551>,qmmmmffffffdf[^^[))))=%==)=",
"47]>]4474]]]]]]^=akuuuu<=^74,,4ffqxwwcee00000c330000mym!55(lllpl)^^^^>lsssiebiiii158659cc<c<c!_555!%,wmmncfmfffffff4[d[)========",
"[44>][>]]]]]]]>a))<aakkc>..      .*mxncceeemea3330e0eqxxqdd7((((]9220(e9ee4cakktkkkkktnkkttkc[dddd;,(mmmccfmmffffff[[[))))==>)=>",
"7777774]]]]]]]>%=)%=+cc]#..*&....  dxqfcmmmmeabbcceemqqwxxxyyxxxxxxxxwwwwqncnktttqwwnnxvvyytkc}}}};66fmmccfmmffffffdd7]4[)>)]]][",
"7ff77ff]]]]]]]]]]))^%])=#&!1!&&##. dxxqqmmnncaa00enmmmmmmmmmmqqxxxxxwqqqqc33<ka)ctnnqxnkcwyqck[}}};667mmccfmffffffffdd[[[))))][[",
"7ffffff]]]]]][]474]%<)=;*!__!&&##..7xxqqqmnccb00emmqmfmmmqqmmwwwwqqqqqqqqn3<<'<c<nm<fnk'cmyf)[}}}};66(7mff7ffffffffffddd[[])][[]",
"[fffffff74]]4f7f4>++%+%-/dddd*(//,*(xxwqqqqnnb0emqmqqmqqqqwmqwwwwwwqqqqqqcc3cc3aacnmnf^fnqyd;[4444;44/(((((,~(,**$$,f7dd4]])]]][",
"-[ffffffff477ff]#  +,((,99999(::::~(xxxxwqnnqnnmmqqqqqmmqqwqwwwwwwqwqqqqqqnccca3<cnqqqmnqqyd}9hoii0ddddd7hhhoh]=+++#f7dd744]4[[[",
" -4fmmfffmmmf4$+;-+,1!1(99911(66::~,mxxxxwqqqnlqqqqqqmqmqxwwwwwwwwqwwqqqqqennccc<<enpqqenqqxc9oooo9fffdd7oohoo2^)+++m7dddd[]][[[",
"+ #[44]/4474-.+-4[,(,(1(99111~666:,.~xxxxxxxxqxxqmqqqmqqxwwwqwqqqwwwqqmqqncccccccaccnqqqqqqxw9hhhh9ddddd4hoooh]^^)%+fm7dddd[[[[[",
"+++ ++  .++  ++;4>*--((*(,,,*>(0(~$.$mxxxxxxxxxxxmmwwqxxxqqqmeffeeqqwwqwqeccccccccccnqqqqqqqxpb~:62[[[[d(96h69>)))=%*((((((//((/",
")<cak<=^+++ >4jjj(((((9(9e6l6}dddd;#$exxxxxwxxxxxxxxxxxxxqf(**$$$$~9qwwwqe4nccnpqqncnpqqqqqqqyqmmmmbbbbb(111199jjjj1&&&&&$+++:91",
"kuuukutttc++,ejjj(!!!!1(6666h-}}}}}$$exxxxxxxqxxxxxxxxxxxq[&&&!&$$$*:lww7fnccepqqqqqpnnqqnqqqxymmmmbbiib:_____1hhhh1&!!!&&+;+*91",
"kkakkkkckc>+2biij0,&,!!(66666-}}}}}$$(fqxxxxwqxxxxxxxwxxxx4!!!!!&&&&$:lq(qqnnnqpnnpqqnnqqnqqqqxyxd7bbbbb~_____1hhhh1&!!!&&++++:1",
"'''kkaackkk)49bbb,+#,,(,::666-};}};##$,,(77fff99emf9elmqme,!!!_!&&&&&.&(mpnnqqqqncnqqqqqqqqqqqqqxyd22bbb~1_111119661&&&&&&%%%+>1",
"<'''''='<^c<4111!#*((0e(99999(jjjh9#-###.###--$*&,**~,,,,~:99999!!!!&$&!lqnnpqqqqnnqqnnnqqqqmnnmqwfbbbbl]}[}[[(_11912bbb22>==+#*",
"'='%''''<''tcbi91*00299(11111:6hhh6-;;--#;;;;;#&!!&&$&&&&_166669_885_&&&9ppqpqqqvnqqqnaclnqqnccccneorrro0}}}}}(55555bhgiib))=+)%",
"%'''')='<''auktb:4nnee2,11111:hhh66-;--;#;;;;-#&!!&&$&&&!516h66958885&&$:lpqqqqqqqpqqncncnec|cc<cctrrrrr0}}}}}(55555bgghib))>)<=",
"'%==''===%)<kkuukkttcc4,1911(|uuub(;mxyxxxxd--#&!!&&$&&&15:66669_8585&&$(qpqqqqqqqqnpnpqec||||ka|cuurrrs0}[[}}(55_55bihhh2:],=<<",
"'%'''''''='ckcaakuuttttcl9ee0ckuunwywqlpqwyy,(,((((,#->/fm//4(d//((((,*$:lpqqqpqqqncnqnnn0|||<aaaakfnwywxqvvwq,1111(;[[[[|3^^)<<",
"''''''''''|'<uakauuuuuttttttkucakkeeelllllpy1_1ellll([fqmm[[[ddd(7(((!&&:llpqqqqqqqlnqne||00|<akakknmnmqmfemqy(11551}}}}}+<4^^c<",
"''''''''||||'<ckkkauuuutkcctkk3ka<0eeeeeeepwq!1jlllpfmqqqq[[[[d[,((((&$$!77qwwqqqnnqqnc|c0000='')<cemmmmmneefy(91511}}}}}@,,#+)^",
"'']]]]'']]|||'%''<=a<<)kcc''a]|ae00eeeeeeelwwm*(99ll7mmqqm[[}[[[*((((,$$:pppqqqqnenene||0nmne]4''4mmmmmmnmmmnw(91991;}}}}@**<<==",
"']]]]>]]]]4||3||'|''<%%)cca'|0020eeeeeeeeepwwyxf7fmffmmqqmmmdnmmmmmqmc>#10nnqqqqqqpncenqnnnnenmmnnmmnnnmmmmmmw((999(-///-#--ac<=",
"']]]>>>]]444||||333|||'=33kk|00000ee0lee0eemqeyyyyxwwxyxxwwxxwwwwyyyyx;#9nnpqqqqqqpncnqqqqnnncfnnnnnnnmmmmmmqwf966h6!1!!!!;;^a) ",
"2]]>>]]]44444||||33|||'''3)'|0200|000ee00eewwewn00000eweeeee000lwwpxyy-*9pppppqqnnpccnnqqqnennnnnnnnnnnnnnnnqyw666h6!__!!&;;^<^)",
"]]]]]]]]44444|||||||||||||||22||0000eee00eleleeqwq0000eee0eeellllllxyx#*9ppppqepcccccnnqqqnnpqqqnnnnnnnnnnnnnmyq:66:!___&.;;;=<^",
"]]404]]]44044444|'|'|||2||22|||3||000ee0eee00|0e00e7f|0eelelllllllpwyw-*9ppppqeecccncenqqnqqqqqqnqqqqneeenmnnnqym2:~(1!(/=cc^<kk",
"]]]00044470440774|'|||22|02|||3330000eeee00000|0|3|||e|0eellllllllllyv/,1lpnpp9e**0e0222:19pqqqqqqqqqm9ennmnnmnmyyyyyyyyywtuuuuu",
"447eee400040efmf7|||||0||00||||||220eeeee0000000|||||3000lllllllllllxw/$~11:11!&$.*~~$$**$,1lpqqqqqqmmmmmmnmnmemwqffmmmqm4cuua<k",
"(000000eee0ellf77|||||02|00||||||e0eeeeeeeeeee0000||33302ellllllllllww/(,,,,~,~:~****,*%%###1:elllllmmmmmmmmmefff777744]]|)'<=c<",
"000000eeelleeeef744440000eee0ee00ellppplleeeeeeeee0|||3eeellllllllllvl4((((~6hohs1___1!#-##-@.#,~~:9eeenmnmnfmq77777744]>>>%%'k<",
"eeeeeeelllee0eeff44]4e000eelllllllppppplppplllleel0cc000eellllllllllle4(((((hssjs18888_!,---@@-@#..,eqpeenemqm0077777]]]>%+>%>=%",
"7eele0elle000eelf77]fle0eelpplllppvvvvvpppppllleell0cc000eeellllllllp0]20(02ossss18888519/--@@;;@@#*9llle9lnee0077744]]]]>>>+%%+",
"-(7eeeeeee00eeellfplllpleeppllllppppvvvvppppllllelp00eee00lqmelle02fqq,0ell2hhjhj119999/7//}-**-**##~11999eeee00774]4]]]]]>>>>>>",
"fd[/440llllllllpppppppptpplpllllppppppvppjlppppppppebeeee0ell0/mqwwwwyx4lll2hhhho9ihiih/dddddhg6_!&#.###.$~eee0007]]]444]]>]]>>>",
"lpqwwwxd/(epplpppvvvviaupplppppppvppvppppjlppppppppleeeel40eqwwplllllpyx20e26hhhh6b666b/[ddddgrr6_&*$*###$#,eee000774444]]]]]]]]",
"9eeeeelqw>(lpppppppvpuklpplppppplpppppelpppppppppppllllllelllllllllllpyyd222_8666bb6b6b]fddddgrrg1&*&*$$#...(eee0000477444]4]]/]",
"!!((999997(:99::999:2kuut999999:::~~1999999jj999961199jjeelllllllllllppyy[],~_66_2kbkbb]4//d/6hhh6,,***,##..#eeeeee0007744]/4]]/",
"....$$$$#$##*$..#.'*'kkuut|$,*$*~,*$$$**$##$$$$,,,,*$&!111169jjlllllllpvwyyyyyyyyyyyyxm!_55896oooo9((]]]*!&&$9leee0ee00044447444",
".####.#$$$$.$$$$$#$#$'kakk''$$!~::~~::::~$$&&&*:~::~$&&&&$.*~!,~9jppllppvppplpplmwlpwwy&wywxxwwwwwxyyyyx(1&&&~9eeeeeee000704444(",
"#$$$$$$$$$$#$$&&&$$$*>=<kkk<%$,!~:~~::::,*&&!!*:::::*!!!!&$&&&&$.1lppllppppppllpwlllwww$yyl9jppppppqvyyymh1&&#,!990eeeee000(4((*",
".#$$#.#####.#$,**+#$'==))%%'=#*,~~*~~~~~$$$**$#*,~~~$&!!&$$$$&$$#$1lpplllpppppleellelpy,wllepllljllllvpwf61!!&..#..*19999:((,$. ",
"*,~~,*#*$$*#:6hh6**,~=%>~*~_1***!!&]2222,;;;;;,:::::*!!!!!#-----;;#1lppllppppplpllllllpdfllllllllllllwlwff/*>*$&&$&$#*****#$$$$#",
",~~~:**&&&!*6hhoo2~!,,%!__588__55{_pvppl4;;;;;,:::::*!!!!!#;]]--;;;+:lppppppppllllllllpx(llllllllllllllv77--###&&$&&*~~~~,#*****",
":9999,*!!__!6hhoo96!~*>!_5888_58885pvvvvm;;};;,:::::&!!!!!)^^^]-;;;;#9pppppppppllelllllwmelllllllllllllp44]-###&&$$$*~~~,,#***,*",
"kbibb,*!!__&~:6hh~6::,,*!9jjjmepj86lpppp7,;//;*:::::!__55_][]^];;;;;@:ppppppppplllllllllw7elllllllllllll,]]]>-#&&&&$#,,,**#|ackc",
"kttttn!!!!!&!!!!!,222:2,,wyyvnttvnupwxxx7iiiii:588_1199999/qmmmd--###9pvpppvvppllllllllllq0elee99eelle99(hhhhh,->/--~6666:kuk007",
"<kckttcb!!!&!111!!6bbbi:#wnkkukaic<npwyyxrrrrr988888188888fmmqqm}-###9lvvvvppppplllllllllp7(9~$$#*,,*##-(goooo(;;-;;:ggghkkk4[>;",
"<%%^anmk1!!&!b11!*2kabh,-wlkk^^|0||elpwyqrrrrr688888_888887fmqqmd;###:pvvvppppppplllle2llpwm$$$$*$$+++#[(ggooo(;};;;:hh6|a<k^[>;",
")=cc=dwc]*!*,2:(,>aka22#dpe')^4||0celpvwmirroo988888188888(ffmmf}}##-fvvvvvvvvpppllle000eeew,$&***$;--;[,goooh,;;;;;~hiukt<<]>>>",
"%=c<=[fqn7ccncckcc;^>;@mw0c]|]kc0eelppvw[|][[[4jiijj///dd/[dddd}}}}mpvvvwvvvvvppppll0be22e0p($*****222b0(99999(((((4ntakka>>>>>>",
"%%===>[[fwmqwxqctc+;;;dwpecc|)<|00llbpvwdc[}}}0sssss7ddddd}ddddxxyywvvvvvvvvvvpvpllle2202eee4>####*hgggh:]4444!5551vn<k<'|>>>>>>",
"=======4]7]]4mwwn^;@@dwpleccc|||0eepppvwm;[[}}0sssss7ddddd}[mxxwvvvvvvvvvvvvvvvvpnlne02200e2'<%##|,hggoo2^^^^^!{5_10|^<%=)>%>%%>",
"=)]==>][])]4]]]mq;;@dqlllecc0|e0eee0pppwq^^^[}0sssssdddddd[pvvvvvvvvvvvvvvvvvvvvvpbele30|eauuk>a>ukioooo2^^^^]!{_&(2]%%%%;>>>%%>",
"]]]>)]74]]))44][w};mqplllcc0000|0ll0pqpwx>],/4(iiiib,((((,(vvvyvvvvvvvvvvvvvvvvvvplbakkakuuuuutttkutwvvwm2](](*!!$>]]>>>%>>>%%>>",
"]]]]]44]74]77f4[q[fppllllec00el0|le0elpvyxe1_8:orrrr98888_9pvvvvvvvvvvvvvvvvvvvvppb2kukkuuttuuuukneeemewy1_555!!!$[]]]>>%>=%%>>>",
">>>]]4477747f7f4q[mplllllle0lll0cel00eppvyyxm9(irrrr18888!9vvvvvvvvvvvvvvvvvvvvpee023uuuk3tttuutta00000qy1____!!&#4]>]>>>>>>>%>>",
"]]]]]47777747eeew[fplplllmlellle0ep0epppvwwyyyxerrrr18885&9vvvvvvvvvvvvvvvvvvvvplle|3auuauutt<utt|0b000qx&!!!_&&&#l]]>>>>>>>>>>>",
"]]]]]]444777eeeew[fppppllllllllllppleepppwwwwyyqbbib1555!&9pvvvvvvvvvvvvvvvvvvvpbb2#>'k3'uukk|kuka<a00eeq4(,~!,ddle]]>>>>>>>>>>>",
"]]]]]]]47777eeeeq[fppppllllllllllppppwwppwwwwwwprrrr98j81&:666999lvvvvvvvvvvvvvpll0]#%a|#3kk<||'aa>||000ewywwwwwqe4]>>>>>>>>>>>>",
">]]]]]]7777eeeeeq;0vpppplllllllllpppppwpvwwwwwvlrrrr9888_&#$$$$*9ppvvvvvvvvvvppppl|2>%#>,,,||#%+#%>||000000e7mm7f[4]]]>>>[[>>>>>",
"]]]]]]]4707eeeeeq;:pppppplllllllppppppppqwwwvvverrrr18885!&&&!&#:lvvvvvvvvvvpppppe||>]>,]|>3k>>>>>]||74||007774]]]]]]]>>[>[>>>>>",
"]]]]]]]40ee00ee0m;:epppvvplllllpppppvwvvppplllj0iiii~588_!&&&&&$#:999lvvvvvpppple00|00|]0]>>'>]]]]|||4444444444]4]d]][>>[[[>[[>>",
"]444]]440ee00000e*:9lpvvvvpppppppppvvvvve~*,*,2ossssbilii9!_!!!&-###.:vppvvpppl000|000024>>>>]]]]]|||]|]]4444444444[>[]]]]]][>>>",
"447]]440eeeeeeee:.,pvvvvvpppppppppppvvvvf$&&&&2rrrrrbiiiii1____&****#~pppppppllee0cef0||'>>]]]']4444]|]|]444]]]44444[[]/4]]]]>>[",
"47744400eeeeee0~# $9pvvvvllppppppvppppvv(&&&&_9rrrrrbiiiii_885_!****#,ppppppllee0c0ee0|||0||4]']]]]]]]]]]444]4444]44/44444][[]/>",
"774770000e00~~* + +~9eleellelllle9ellll0*&&!!_:rrrrrbiiihb18hh81-**-#,lnllnlleee0eec|0|||||4|']]]||]']]]]4444444444(,444444///[/",
"fffeee0>%#..$$*,(+%%%$%%####%$$****,,,**,~~2bb:11111/ddddd(9999([)>>+~lplleeeeeeeeecc|||074|'']]]']]]]]4]]4444444(,&!(44444444/;",
"4eeeel].##$.*~~:9#%==%%+ @+++$!!!!!~~::6boorrr988888/fmmmd9hhhh6)^^)+,elle0eeeeee0||||0|47]44]']]]]>>>]]]]]]]]]],.  .!4444444(4/",
"$7ell7..####~~:99/%%==%+@@@@@&____!~:::hbrrrrr988888/ddmdd9hhhh6)^))%,0llee000eee0|ccc0474]44]]4]]]>>]]]]]]]]]],.    *(44474//4/",
"$40eed##$$*$*~:9(+%%%%+@@@@@@*____!~:~:oboooro:{8885/ddddd:6hhh1)^))+*(elee0c|0ee0cee004474]]]44]]]]]>]]]]4]],*.     #,d7444(((4",
"#%>>>;###**+#,(,+++%=>]-,(]]4#!&*&$>%=|c]99999,99999]ee0e7(1999(,(,,#7ym4000|||eeceee0]44744]444]]]]]]]]](/(,$.+;+   #4f(4///((4",
"......#$$,,$&!!_&#>>]22(hhhhs15_1!!=^^<c]55555:biiiibsssoi_5885_11_!;wvvq]4||||eeeee004447]]]444]]]]]]44,#...*#%%%+  *(074//////",
"#$$$$*$**,,*!!!!!*~~~|2(hoois!5551!^ac<<]558551biiiibrrroo_5888_!__,qppppqd]||00||000fff774]44444444444/#.##~6,==%+  ,7f44//////",
"#$**~,****,#&!!!,*>>>~],hiiij:1___*^<^c<]58555~bibbbbooooh!_58_!11dwpllpleqwd400044047444(~*(4744444444/..##:6,>>>%  ,/[d/;///;;",
"####,,#****+#,!*##%)c^]-2000]c0(20]ccckkcej1b1*22222]9jj9:-dmqxxxyxpllleee0fwm[(],,!(7(!&$$.$&,(](((4/(# ..*~~>)>>% .,/[[;;[;[-;",
"*,**,,*&&**#dxyxq+^c<^^*(997;[nnkttttkvvvtttte9jjjjj!555517wyyxwpplllleeee440eqq*.   ....#........... .@@*!111)=+;; .,[[;[;;;;;;",
"*!!,,,$&&$##dfmwyx))>fqwwqmmqmfntcccccccnnf)^n9jjjjj!_555!(llpwlllllleee7777427q%=+..##....##.###..   @@@1__11#++++ .,[[;;;;;;;@",
"*!!!,,*&&*#.d4[ffqqdffmm7[[[>>=^c^])%=>]c7m7]cejjjjj!5555!7lllpllleee07704774]]f%c<..##.$$$$#.&###.   @@-1_111%++++  *;;;;;;;@@@",
"******$*&$..[[[[dddd[d44[[[>>%+%==>>)[[>+%]4ktknljjj!____&7lllllleee74444]744]]ccac=####&&&##.#....  @@@#!!!!!+++++  *;;;;;;@@@)",
"#**,,*----# dd[[[dddd4[[[[[[>>>>=>[>>[[])]]^<ctccle9,11!!&(ejlllleee744444444]]cakk<+,],111!!,&&&&&@;;;;-::::* #&&*.%>;;;;;@@@@)",
"*,,,,*+---# [[[[[[d[[[[[[[[[[>>>[[[>[[[=>>^])ckntvb9!____!#~:90pleee744]]]]4]]>)=<<<]],!1___!&!!!!&@;;@@-6666:#*!!&#+>=;;;;;=))<",
"**,,**----# [[[[[[[[[[[[[[[[[[>[[>[[[[>%>>%=>^ckcnne(___!!..#$*0llee044]]]]]]]> ==++>,,&!1_1!&!!!!&@@@@@-66666~!!(,. #%;;;;=^<<<",
"****,*-#--.+[[[[[[[[[[[[[[[[[[[>[==>>====>==>%)c%^ccn1!!!!#$$..$2leee444]]]>]>> ++++,,!&!!1!!&!!!!&@@@@@-66666,!///+=>;++)@++^<<",
"#*,#*-+@;[d;[[[[[[[[d[[[[>>>>>>;>>=====>;>=+==%===^ct0(((,#####..~eee074]]]>>-#  +##,,&#////-$&&!!*~:~~~*->>>--,&**+)<=+=++++===",
"[dmmqqmddfd;;;[[;;;[d[[>>>>>>>>;>;==)>=>==%%%++==>^^nn000(#####.  *0ee04]]],-#.+++#!!!!#=====&&&&&&:6666~;@@@@#!!!&##+%=++)^)++ ",
";;[[[d[[[[[[[;;;;;;[[[[>>>>>>>;>[>=;[[>===+%=%%%=>==c^0000##>##.   #(ee04,*#..+>%#*!!&&#====+&&&&&&66666~@@@@@@*!&&&#+=^)=+=)<)+",
";;;;;;;[[[[[[;+-;+;[[>>>>>>>>>>>;>>[[;====%%%%%%%)=>=>c000#####.    .(e(,#..+##~~*$$$&&#====%$&&&&&66666~@@@@@#!*&&&#++++ +%%<<<",
";;;;;;;;;[;[[[[[d;[[[>>>>>>>>;;;;;;>>>;>>==%%===%=))=^^],,#--#+       #..#$.##+,,###### +%+++.-##-#~~:::*##### $.#$>%%=^=+=^=)<<",
";[[;;;;;;;;;[[>[[d[>>>>>>>>>>>;;;;>>=>>>>==%=%%%%%=)=)cn::(9(,#+#.... ##*6:#+++++;/////+%;%;;@;@@@;&&&&&*99161*&*#.)<caac<))=<)=",
";;;;;;;>;;;;;[;->>[[>>>>=====>;;;;;;===>==>>===%%%%%%='ck0(99(,#**#...#*:1:*%+ ++;//-}-++++++@@@@@@&&&&&$166::##.+)^caccaaa<==+ ",
";;;;;;>>;>>>>>>>==>>[[[%>=====>>>>=============)===%====at099((,#**##.*6666,+++++------++++++@@@@@@$$####:6111#^aaaca<<^<)<<==+ "};
