/* XPM */
static char * Sem título_xpm[] = {
"128 128 64 1",
" 	c #10120F",
".	c #191810",
"+	c #181917",
"@	c #1D1E08",
"#	c #262519",
"$	c #272622",
"%	c #313218",
"&	c #343326",
"*	c #33332E",
"=	c #3C3C34",
"-	c #3B3C3A",
";	c #42412C",
">	c #44433A",
",	c #494A25",
"'	c #4D4D1A",
")	c #4C4C4A",
"!	c #4E4D38",
"~	c #4E4D43",
"{	c #575750",
"]	c #5C5B40",
"^	c #5D5B4C",
"/	c #5D5D56",
"(	c #5F6136",
"_	c #626330",
":	c #646523",
"<	c #686659",
"[	c #696754",
"}	c #67675F",
"|	c #69684D",
"1	c #747356",
"2	c #737268",
"3	c #787562",
"4	c #797852",
"5	c #7B7E2C",
"6	c #7B796F",
"7	c #7C7D41",
"8	c #7D7B5E",
"9	c #848276",
"0	c #878466",
"a	c #888660",
"b	c #8F836A",
"c	c #91943B",
"d	c #97936E",
"e	c #949285",
"f	c #969374",
"g	c #9F9275",
"h	c #989A58",
"i	c #AB9D81",
"j	c #A5A27B",
"k	c #A4A74C",
"l	c #A5A395",
"m	c #A7A484",
"n	c #AFB344",
"o	c #AFB170",
"p	c #B1AF8E",
"q	c #B4B937",
"r	c #B2B758",
"s	c #B7BC20",
"t	c #B4B2A2",
"u	c #C4C1A4",
"v	c #C4C1B1",
"w	c #D5CFB4",
"x	c #D4D0C1",
"y	c #DEDCCF",
"+++++++++++++++++        +++.+++++++++++++++++++++++++++++++++.++++++++++++++++++++++++++++++++++++++++++++          +.+++++++++",
"++++....##&>~^^<<<<<<<<^^^^{~>=*...+++++++++++++++... .  ..............$$.....++++++++++++++......$*==>~{/}2669999962}{=.+++++++",
"+..#&^3eltpuvvuuuuttttuuuuuvxxxxxl6*.++++......$*~}6elltttttttttltttvvvvvt9.#...++.. +$ $ ..#~3elvxxxvtvvwwvwxxxxxwwwvvxv6$+++++",
"+.@[fmmfgmpmmmffffffffffffffmvwvvxxxe +.....&6lvxxxxxxwwvwwxxxxxxxwxxxxxvvwe@#=>=$.....+++ [emmmmuwuuppppuuppuuuuupppmltvvt#++++",
"+.!f88a488aaaaaaadddddddddddiuufflvvx9 ..>etvwwvvuuumppmmmmvwwvvwwupuuwxvuptltxxxxvtl6....^iijjjjmppppppppppppppppppppmmmux6..++",
"+#<38444a0aaaaadmppdddddddddfggigftvvl .9vvvupifffmmmmfjmmmuwvvtvwppmppvuppppvwxxxxxxxv>. bmjjjjjjjjppppppppppppppppppppmmml..++",
"+&!118884a0000dpppppadddddddggdddimvvl ^tpm00fffffijjjjjmmmuwuppuupjppppppppppwwxxxvvvvt..ejjjjjjjjjmmjppppppppppppmvupmmmmi&+++",
" &!18888000000fpppppaaddddddggdddgfvve 3080000fffmpjjjjjmmmmpppmmppppppppuupppppwxwvttvv>.[adjjjjjjjpdmpppppppppppuvxwupmmmm!+++",
" >!|||^!|80000ajppppadadddddggjjfgftve 30f00000ffmjjjjjjmmmmpmpmpmpppppppvxwtppppuwtvvvv{.[110fjjjjjmppppppppppppuwwxwumpmmm3.++",
"+~!1e399[|80000afppdaaddddddgdjjgiutve.3000000000ffdjjjjmpmmmmppmppppppppuwvvwvppmttuvvv^ ~[300mjjjjmpppppppppppppuxxwppppmm9.++",
"+~!|mptvt1800000aaaadadddddddddfgmwtv6@3000080000ffffjjjjmmppmpppppppppppmutxxvvmppmpuvv<.}<%]8mmjjjmpppppppppppppuwwuppppjm9.++",
"+!]|11bmf1800000000aaaaaddppdddggpwtt2#300f08800000fffjjjmmpppppmppppmpppjpuxxxvvwumpwwv^.evtt|fmjjjpppppppppppppppuupuummjme$++",
"$!](4111888800000000ddddddduuddggpwul}&380f00808000fffjjjmmmppppmppppmmjjjjpwwvtxvummuwv^.evwwufmjjjppppppppppppppppppuummjme&++",
"$~]||111848888800000444addddjdggguuml}&31800f00000000fdjjjmmmpppppppppmjjpjpuupuwwwmmmwv~.3fffmmjjjjpppppppppppppjjpppuppjjme&++",
"$~^||81184888888000faaaaaadddpfggmmfl/&3188000ff008000fjjjjmmppppppuppmjjpmmpmmmpuummmuv~.3dddjjjmmmpppppppppppppjjppppppjjf3&++",
"$!]|]11111888888000ddafjdadaaigfmltvt{&2[18880fp088880fdjjimmppppmpuppmjmmmppmjmmmimjjim~.3ffddjjjjjppppppppppppppppppppmi|!9&++",
"$!]||11111888880000a4appmdaa00fiuwwxt{#[[118800p0008880ddjimmppppppppmmmmpmppmmmmmmjjjjm;.3ffdddjjmjppppppppppppppppppppima0e&++",
"$;]|111111888888808aaapppaaaadfffipie{$[[|18880u0088880fdgimmppppppppmmmmpmppmmmmmmjjjii>.3fffffjjmmpppppppppppppppppppp10ame&++",
"$!]|111111111888888aaamppaaaadfdffmfe{#<[|1188808888880gfggmmmpmpmpppmmmjjmppmmiiiupjjjf=.30ffgfmmmmmppppppppppppppppppm0mjme&++",
"$!]|111111111888488aa4aaaaaaaadddfmi9~$[[11188808088880ffigmmmpmppmppmijjjmppmmiimmjjjdf&.30f0fgfmmmmppppppppppppppppppmimjme&++",
"$;]|111111,181884884a4aaaaaaaaddd0pme~#[|11888888088110f0ggiiimmpppppiijjjmppmiiimmjjjdf&.300bbffmmmmmmppppppppppppppppmpijmb&++",
"$;]|1111111111888884aaaaaaaa00dddfmue>$[[|1188888888110f0fgigmjjmmmmmijjjjmppmggiimjjjgf&.301b8^1mmmmmmmpppppppppppppff8pmp0[#++",
"*;]|11111111118888844aaaaaaa00adammm9>$[[||181888888110f0ffimjjjmmmmmfjjjjmppmgdiggjjjdf&.30bltvl8mmmmmmpppppppppppmmfmf00df3&++",
"*;]|11111111111148844aaaaaaa000aafmve>#[[||118888881888f00fgfjjjjmmpmfdjjjmmmmidgggjjjfb&.[0b3ellffmjjmmmppppppmpmmmmpm8mppm3#++",
"*;!||114444441111188888800000000f0uve>#<[1|118888888118000fggdjmmimpmjjidjjmimddjdgjjjfb&.<8bbt3!0mjjjjjjpppppjmmajmmm10mppm8#.+",
"$>!^|11144444448188888800000000000pue>#<[[|1888888888880000ggfdjiimpjddddjjmiidddmgdjdfb#.<3bbwwmmfjjjjmpmmppf4amppfa0gppmpf3#.+",
"$>!]|111114444444448888000000add00mue>#<[[|1188888088880800ffgfmggmpddddddjmgmiddmmgddfb#.<1bfmmigfjjjmmmpf14ampppmpppmmpmjf3#++",
"$>!!|11111444444444888888000aaddf0iue>#<[[|118888888880080000fgmggmpddddddjiimgddgmiddfb#.<|ffffgffmmmmmf|]0fjmmmmpmmppmmmjf3#++",
"$>;;!111111111144448888880000addf0mue~#<[[|11188088808008000ffguggmmdddddddggpggdfmmaa0b#.<|bf000000f01!|fmmmmjmmmpmmmpmmjd01#++",
"$;!|!]|11111111114488888880000ddf0mue~.<[[|111888100080080000fguggmiddfdddggipggdfmmaa08# <||1100ffggf1fmmfmmjmmmmmmmmmmmmdf[#++",
"$;!]|],,|||1111111448188880000f000fve~.<[[|1111888080000800000fpgfggddddddgfmuggffmmaa08# ^|300ffffgi80mffmfmjjmmmmmmjjmmijf[#++",
"$;!||||||]!!]|311114118888800000039b[=.^[[|11188088880000008000mgfffdddddfgfipfff0pmaa03# <3800dfffff1mmmfjdjjjjjjmmmjjmmdjf[#++",
"$;!]||||||[[]!;!|1111888888081]]]8ee6=.^[||11188888800000000000iffff0f0fddffgmfff0pgaa03#+^1180aafff|fffmdjjjjjjjjjjjjjiiijf[#++",
"$>!]||||||||||!|!;]|833|||]]|8gmmpmle>.^[||1111888808000000000ff00ff000ffdddjm0ff0m0a003#.^|18010bb81ffffdjjffmfmmmfmmmfggd0[#++",
"$>!^||]]|[|||!||11|!;;;!]8fiimmmmmpme~.^^||11181888011080000000000ff000ffddddd00000aaa83#.^|118|bb8]f0ffffddffffmffmfffgiga03#++",
"$>!^^|[l<~!!]|]1||118]0ffggiimmmmppme^.^^||111188888888880800000aaadaaaaa00080aaaf0aaf88#.^]118|1||f0ffffffdffff0fffff88ffd0[#++",
"$>;^^|]9ll[]||]|11888!||1184800fff008^.^^||1118118888888b88b00b0000000000000000aaa0aaa08@.^]|883;1000f0ffffffffm0ffffff0gff0[#++",
"$>;]]]|]^^||||||!!!!;;%]||11111888888^.^^^|1111181888888bb8bbb8138bbbbbbbbb00000000aa003..^]|383;880000ffffffffffffffdffff0b[$++",
"+;;!]]]]]||||||||||[[3[%[|||118888888^.^[]|1|111888888881||]]]||[[]][]!;;;]|88000000a883..^]|[3!|188000ffffffffffffffdff000b^.++",
"+>;!]]]]]|]]|||||||[[[[[&!!!!!!|88188~ ~^[|1|1188881|!!!|3bbb0bbbbb888bbbbb3|!]|000088b3.+~][[[;38180000f0fffffffffffd0fff0b^.++",
"+==;]]]]]]|||||||||||||1[;[3|18[!]818> ~^[|||11|];!]3888888800000000bb008bbbbbb1!!|f083< +^^^;&!3|18080000fffffffffffdaff00|~.++",
"+==>!^]]]]|||||]||||||||1];11|[33]]18=.~^^|[|!;![33333888888b00008000000008bb88b888]!|3>. $;![<^^1111800f0000ffffffffff001|]~+++",
"+==>>>!^^|]]]|||||||||||||!^3[[[[|]![$.*<^!;;^[3388888888888bbbbb88bbbbbbbbbb88888808[^. $^|||||[!]11104a0ada000f0ff0001]]!~>+++",
"+&===>>!!]]|]]]]|||||||||[]!!1|||||]^...&&!^[[|||3888888888880000800b8818808b8388118836..+^]||||||]!188800b000000f0008|1||!!$+++",
" &===>>;;!]]]]||||||[[[]!!!^!!|^;^^[! ++>^^^^^||1111881888888888188881]10888b838888833>.. ~!!|||1||![333]!!1b00000008|]||!!!..++",
" $=====;;;;;;;!!!!!!!!!!!!!^!!;!&~^>.++ $~^^^^^]|11111111|||||||131||!]||133[;&[993[^&.. +#^!!^^[[[!]||!|||1];]13b8|]]]!!!~&.+++",
" .=====>====>;;;;;;;;;!!~~~~!~~##..  ++ .*^^<^^![[[[^<<^^]|||[^^[333[!;^[[[^&**&=>>*.      &>{~~^^^!11]]|1113&##>~~~^~~~~~=.++++",
"  .*=&&====&&&&&&&&&&&&&&&&&##.         ..$>~~~~~^^^{{//^^^^^^^^^^^~>=&>~~>#......      +    .$$*==&~>.@>~~;&    ..#&***$$++++++",
"+   .$&=>~~{//}}}222666999eeeeeeee999662}/{~>>>>>=&& .++..#&&&&&&>>~~{{{/}///{{{~~>~>*$$.$$$$*==>{}}26eelllttttllleee96/- ++++++",
"++ *{}6e99662//////}}222}226lee9eellllltvvvvvvvtttvvt2+  #3ellltvxvxxxxxxxxxxyyxxxxyyyyyyyyyyyyyyyxxxxxxxxyxyxxyyyyyyyyyyx}$.+++",
"+ *)/62266696699966662//////<2lllee9<<<<<22269lxvtttvv2  &3bbbbfetvvvwwwwwwxxxxwwwxxxxxxxxxxxxwvtllimpimppppiitvvxyyyxxyxxxe.$++",
"+.>>~<2226666996966969/{{/{/<^<66<<<}<}}}2<2<<29lvxvtle .>bbbf0beevvvvwwwwwxwvlltttvwxxxxxwutiigiiiiiiiiiiiiiiiiiiiwxyyyyt9t$+++",
" $>>~~<26699992/{{}}/{{{{/////////}///}2}<222222299e996+.~3bffffevvvwwvvviiiggiiiggbiiiiiiggiiggiiiiiiiiiiiiiiiiiiiltxxyyx9t~+++",
" $>~>~~~2{~{{{~{{{~{{{{{{{{{/////////}}ee9<2<9962922666..^3bbbbbtvvtiiggiggggiwwwgggggggggggggigiiiiiiiiiiiiiiiiiiiiimvxxtbi~+++",
" *=~~~~~6{~~~~~~{{~{{/{{{//{{//////}}/6vle<<<xxt2666666$.^38|3b8bfggggggggggggtutggggiggggggggiigiiiiiiiiiiiiiiggiiimmtvtfff^+++",
"+*>/9<^>//~~~{~{{~~26{{{{{{{{{///////}/9e<<<2vvt2626226$.<3|bbb88bbbgbbggggggggggggggigggggggggiggiiiiiiiiiiiiigggiggmpvtfg0[.++",
"+*>><229{~~~{~{~{~~/e{{{{{{{//////////}//<<<6xxx6266666*.<38b8838bbfgggbggggggggggiggiiggggggggiggiigggiiiiiiiiggggiigiplfgf[.++",
"+*>>~^^6{~~~~~~~{{~~/{~{{{{///{////////}}<<<2vvv6626622* <33888[||18bgggggggggggggigggggggggggggggiigggiiiiiiiiib8giigigeigf[.++",
"+*>>>~<6>~!!^~~~~{~~{{{{{{{///////////}/}<<<6xl92622222* <[[]]!^3e9|]0ggggggggggggggggggggggggggggggiigiiiiiiiiiggggggigfggg[.++",
"+*>>~~~~~!a4~~~~~))~{~{{{{{//////////}///<<<<t922222222- <!]3b3evvvvmbgggggggggggbggggbggggggggiiiggiiiiiiiiiiiiigigggggfgff[.++",
"+&>>~!!~)]rh~)~!))~{{{{{{~{//}}////}}//}/}}}}<222222222=.^3b388bpuwumbbgggggggggggffggggggggggfgggggggggiigiggiigggggfggggff<.++",
"+&>>~!!~~7rk])!!)~!{{~~{{~{//}}/////}////}}}}}222222222>.<3b8bb88bbb00bg0gggggggbbffbbggggggggffgggigiigiggggggiggggbf8bgggf<.++",
"+&))~!!~;knr_~~~)~]~{{{{{{////}/////}//}}}}}}2<2222<2<}>.233388888b80bbb0ffbggbbbb33[[bbbgggggfgfggiggigggggggggiggbb0bbgbfb<$++",
"+&))>~~)!nqn:!{))^^^{{{{{{{/////////}/}}//}}}2<222<<222~ <338888b8bbb8000088bbb8b3<[[[1bbbbgggf0bbgigggbbbbgggggggbbb0bbgb0b<$++",
"+&-))~~)!kqq7^))){^{{{{{{{{/////////}}}}}/}}}}2<22<22<2~ <3b8888b008bbb0b8||bb[33[<<<^[3818bgfb88bggggfb81bgggggigbbb00bbb0b<$++",
"+&>~)~~~!cqq7^{^{^{{{{{{{{{//////////}}}}}}}}}<2<^<2222{ <338888b000bbbbb8||33[[[[<<<[[[[[3bff8113gggf8313bggggggbbbb0bbbb0b<$++",
"+*>~~~,,!7qq7^],_(^{{{{{{{{{///////////}}}}}}}2<~~<22<}{ ^338888bbb0bbbb3[[[[[[[[<<<<<[[[[3bb83113bbbb11|1bggggggbbbb0bbbb0b<$++",
"+*>!~!7h(_nqh!(cro4~{{{{{{{{{////////{///}}}}}2<^<222<}~.~3388888bb8b8b8|[^^[[^<<<[[<[[[[[[b331||[bbb81|||bbgggggbbbb00bbb08^$++",
"+*>!>!7rh'nq5_knnr7~{{{{{{{{{{{//////{^//<}}}<<<<<<22<}~ ~31888bb088b88||[[[<<<^^[[[[[[[[[33|11|[|3bb1|[[|bbgggggbbbb00bb881^$++",
"+*>~~!_krckn5kqsnh,{))~~~^{{{{/{/////<<<<<<<<<<<<<22}//> =[18831888883||^^^<^^<^^^[^[[[[[[[3333[[[[3[[[[[|8bbbbbbbbbbbbbb[|[^$++",
" *-)~!!_kqcqnnqqk(~~{){~~^{{{^/{/////<^^<^^<<<<<<<<<<}}-.&^3||]]][[[[[^^^^^<^^^<<^[[[[[[[[3[[[[[[[|[[[[^[|||888b888888833^[^~$++",
" *-)~~))4nknqqqr())!~~{~~~{{/////////^<<^^^<<<<<<<<<^<}) $>[3[^!![[^<<^^^^^^^^^<^^[[[[[[[[[[[[[[[[[[[[[[[||||||1|88|||13[!!!~+++",
" &&~~~~~;4hnqro_](74!~))~~^~^^^^^^^^^^^^^^^^<<<<<<<<^^/- .&~<<^!;^<^^<^^^^^^^^^^^^[[[[[[^^[[[[[[[[[[[[^^[[[|[[[^![[!!!|[!;!!~+++",
" $&;;!7h7''qn5':kqnj!~))~~~{{{{{/////^^^^^^^<<<<<<<<<{/*  $==^^^^[^^^^^^^^^^^^^<^^[[[[[[^^[[[[[[[!^[^[[^[[^[[^^^!^!!!;[^>;^^>+++",
" $*>>!_kkk5qncnnqqk(!~))~~~~{{///////////{{{{{^///<}}}>.   *==>~!^^^^^^^^^^^^^^^^^^<<^<<^^<^^^^^~&<^^<<<<^[[^^^!!~~>~!^~~>^~>+++",
" $*-)~!,7hhnnnqqrh,!~~~~~~~)~~{/////{/{~~~>=********$*...+  *=>====>>>~~~~~>>>>>=>=&&&***&&&&===>&~^^~~~~~~~~~~>>~>>~;;>>~~~$+++",
" $*==--*&%'rrcc5_;->>>~~~~))~>~)~~~>===*******$$.....$$*$..  .#$$$******=****=======>==>>>==*$####$***==&==>>>>>~>>>>>>~>~~&.+++",
" .$###+++$$5r'$*%;>~!~~~~>>;=**#$$$$$**$*$$....*>}9eeee999966}/{{))>**>>>>>>===**$........$>}elllle996662}}//{~>&&&&&==>>=&.++++",
"+.+$*=>>>)>7r_}}[<[||[[<<330099eeee}~$    +$~26<<^/{{{{^^~~~~~~~}6exvl66262969exyxve$+  .><229e9999699eltvvxxyyxxxvte6{=$$.+++++",
"++$->(::',]7r5[}[1777817h_[[[}}[|2}299}   -69evxxl<}}}}2<29vvvvl<<^9xxl^^<<<<9xyxyyvl  .${<<2662<699999999999eeellttvvxxx6.+++++",
"+.==(rqqqk7_hh(4hrnno(4kqnh[[}}[812}<}2. .{}6xxxxv}/{{//{^exvtvt9<2<exxxl<<2<vyxxyvtx> .$/<<<<<<9999<999999999996666699elv6+++++",
"++->,onqqqnc5h:kqsss744kqqn1<}[|o_32<}}*..//}tvvl9ee}{{/{/xxxxxxxt22<txxye222exxxyyxy9 ..{<<<^<99996<9999999999999966996666~.+++",
" $-;,7onqqqnkc5nssnk414hnqn|<<[|oh12<<2=.~/{{^{~lyyyye^{{{9ltvvxxt22<<<exx<<<<lxxxyxyl.*e<<<<<9626962}>6666696666666}9966666*+++",
" *=;,,,7rqqqqkcnqnk4(_7cqqc[}[|(kr4[[<<=.lv{~^{{lyyyyv^/{{{{^~~^<<<<<<<6txe<<<<9xxttyt.=ve^^^<9962^~=>&2666626666666}6962666{.++",
"+*=>>~>;'7knqnckk7__krrqsq:<}||_krh<[<<=.lyv6^}/}xyyxyl{{{{{}le~<<<<<<9xyyxe<<<<<[[<ll.*l9~^^2999^>~>{}226222666666626662222}+++",
"+==-))>>!;,:5kkk:!]kqsqqqn_}}||hrnh<1<<>#eyyye}//}vxxxv{{{{{/xxe^<<<<<lyyyyyyt<<<[[<^2.$l9~^~^666<^2222222222622666666666662}+++",
"+===~>~>~~~~!,5r:,hqqsqqqr(}<||orr7<|<<=#2xyyv{/~^~vyt<~{{^^~tyx2<<<<<9xyyyxyye2<^<2^2.$9~^{{{{}22}2222222}}}2}}666666666622}+++",
"+==>>>)>~!~~~)!k5:nsqqqsqc|<[[|kc4[[2<<>#{vyyv^~<9evxxxv~^^^^<yyl}}}<2<222vxxxyxxt<<^2.+}2^2xvl}22}222222222}}}}6666666622222$++",
"+==!!~))!,!~~);7kcqqqqqqn7[}[[|oc([[<<<>${lxy9^exxyxxxvx6^^^^~tyyyyx9<2<226ttvxxxxy2<2.+>~<vvxt/}22222}22222}}}}2666666622222$++",
"+=>;,(__7777_]!_hrqsqqqqc(<}<^|oc4[<[<<=$~e99etxxyxyxxxy6^^^^^^lyyyxyv92<222<6evxxyx~2.+={lxxxv}}22222222622}}226666666622222$++",
"+=->,hnqnnqnnnc:kqsssqqk_|<<<^|oh|[<[<<=$>evelyxxxxxxxxt^^^~^^^~9xyyxyx96<22<26evxyy^<.+>/}vxyt}22222222262622226666666662222$++",
"+==>!hnqsqqqqsqnnssssqk_]<<<<<4o7|[<[<<*.~9e~^vv<<2<vxxv^^~^^^^^{{lyxxyv<692<2vyxxyx^<.+>/^2tt2}}}}22222222/6226666666262222}$++",
"+;;>>,7knqqqqsqnqqnnk5(^/^[[<[4o4[[<[^<&#~/{^~2<^^<<<vxx2^^^^^^^{{~6yxxvevxv26xyxvyy^<.+>/^{///}}}}/222262}{6226666666}}2222}$++",
"+=;;~>>!:cnnnqqqnq5:_(^<]__|[]7h4[[}[^<*.~/{^^^^^^^^^296~^^^^^^^{~{{2tl29xtv<lyyytyy^<.+>/^//}}}}}~>222222}/6226666666}}6222}$++",
"+-=>!>>>!!,:7hkkck7^^]](crrh||hh4<[}[^^&.~/^~^^^^^^^^^^^^^^^^^^^~>~{<^<<2xxe<<vxxxt9^^.+>/^//}}}}}{{2222222222266666662222}}}$++",
"+->=!!;>~)~~)!,,,hh^{^_knncoh_hk_|||(]^$+)^^^^^//<^^//^/{^^^^{{^{>~{<<<<<6l<<<<<<te^^^++)////}}}}}/{22222222222622262622222}}$++",
"+=>;~~>>>~!~~!!~~_r({]cqqk:7k5kcchokk7|$+)/^^^]/}<[^//^^/{^]^{{^{{{/^^<<<<<<<<<<<<^^^{.+-{///}{}}}}}}22222222626}}/6622222}}}$++",
"+-=;>-)-~!;!!,,]('h7]:nqqn7|7krnnnnnroa@$)/{^[^^[[[//^_7]{/^^{{^{{{/<^<<<<<<<<<^<<^^^/ +-=~///>{}}}}}}}2}2222222}}62222222}}}*++",
"+-=>>>>;':7hknnnnrch(kqqqqh||hrrrnkh7:,@.>//]_]^}<<^|7rr_{){^^{{^{{/<^<<<<<<<^<<^6^^^{++-~>~//~{}}}}}}}2}}}22226222222222<}//$++",
".;;>>,_hnnnqqqqqqqnk7nsqqq7|(o7:_:(]]]~+#>{^7nk_|<<[_kqk({{{{{{^{{{/^^<<<<<<<<<<<<<^^/ +-/~~{/~{/}}}}}}}}}}}22262222222}}^{{{$++",
"+;;>;,hnqssqqqqqqqqnnqqqnc(|hh(|^</)^~)+#>{^oqqr_11_knr7]^^^{{{^{{{/^^<<<<<<<<<<<<<<<{++)~~~{{{{~~}}}}}}}}}}}2222222}2}//</{~$++",
"+-=>;!'cnqssqqqqqqqqqqqnc_((o7[/}/){^~)+.>{^7nqqk_7kqn7]<^^^{{{^{{{/^^^<<^<<^<<<<<<<^{++->~~~{{~~{}/{/}/}}}}}}222222/}}//^}/~$++",
"+>;!;>>,7rqqqnchckrnnqqk:_7hh_(((]]^!!>..~{^(hnqn55nn5,]//^^^{{^{{{/^^^^^^<^^^<<<<<<<{++-~>~~{~{{>{{{{//////}}2222}2////^^//~$++",
".((,>))>;,:5kh,;,'(7hqn7(knqkkknkkc_!~=.+)/^]'nnnckk5:_4^//^^^{{{{{/^^^~~~^<<^<<<<<<</++*>~~{{>>~{{{{{{{{///}}}}}2}2////^^/{~+++",
"._h7'~))>>>hr_!]7_]](nr](rnnnnqqqnrh]~=++~^(h7:oknnkkkro(/{^^^^{{{//^^^~~~^^^<<<^<<<^/$+*$=>{{>>=>>~{{{{/{//////}}}}/////^/{~+++",
".,5cc_!>~))(_;!7rk,]!5r(!('knnkkc7(]!!&++)^5nr,:nqqnkkkh(^{{^^^{{{////{{~{////////^^//$.*-/--)))---*=>~/{{{{///}}}}}//{{/{}{>+++",
"+;7ccc7,!))~>)]kqk']!'o7~!7kk5_|^^{){~& +-[5nk,7nqc7_::(]{{{^^^{{{{///{{{{//////{<^^//$.*--//-*----====>~{{/////////{{{{{~}{>.++",
"+>,5cckc'!!!~!:nsnhh_'hh!]kkh((]^!!~~~#.+-|cqk:knk'!{]]^{)/{^^^{{{{///{{/{////}{~^<^//$+*))))/)***-========{/////{{{{{{{~~~~>+++",
"+;;'7cckc::77cnqqqqnnc:k:cnk:5kokh7,~)$.+>4nqkknn5'{)/^/{/{^^^^{{{{{/////{/////{~<^^//$+*{{/{))//{)---*=--*={///{{{{{{~~~>>)-+++",
"$;;;'5cknncknnqqqqsssqnkcnqknnqqnr7!)>+..,cnqqqqqnc7]{{{{{^^^^{{{{{{////////{{////^^//$+-------{/}{}/))))-**>>>>>>>==*=*==>=$+++",
"+=->(7:5cnnnrkkknnqsqqqrkkcnqqnrc:,!~~+@_hnqnnqqqqqr7^{^^^^^^{{{{{{{////////{{///^<^//$+*------)}/)====*=====>>~~{{///}}}22})+++",
"+-->(hh7:cnn5:_:knqnkrnn5_:qqnc:_]]!^;.7kknqk5krnqnc_^{^^^^{{{^^{{{{/////////{///^^^~{$+*----))/}/-=>=>~//}}}}}/}}}}}}}2222})$++",
"+&&;,_44(:nk',]'kqqk::kn5'7qqnc_|][^!;%kknqq';,7h7_!~~{{~~))){^^^{{{{{{//{///////^^^&>$.**--)//}/)->={2}}}}}}}~~}}/~/}}/{2}{-$++",
"+*%_7:','5nnk7''kqqk_4cnncrqsqn5_]]!~%(k5:qq7;;,;!~)~~~~~>>>>{^^{{{{{{{{{{{/{//{///^*>$.------>){>-=>2}}}}}}}}/}}}{>>~)>=>=--$++",
"+-%hccc5cccnnnk5knqk(]hnqnnqqqqrh777]%4a@:nqk,;>>)~~~~>>>>>>>~{{{~~{{{/{/{{{{/{{/{{/~{$.---==========/22/{{/}}}/}//{========-$++",
"+*%_ccnncckknnnnnnnc:'5nqnnccnnnnrrrh1&#%7nn7;>->>~!~~>>>>>>>~>>>~{{{{{>~{{{{{{{{{{{{{*.---==========>//=======*>{{>========-$++",
"+*&%:ccc5:':5knqnkcrr5cnqqc::cnnnnknh,%;'knk,--->~!!~))>>>>>>/>>>~{{{{{~~{{{{{{~~{/{{{=.---===================*=============-$++",
"+&&&;,(,,!,,,'crn5knnnnnnnk55nncccc5',%1knn:';;;~~~~>>->>>>>=~>>>>>~{{{{{{{{{^{{{{{{{{-.---=================================-$++",
"+$&&;;;;;>;;;!'7k:cnqqkckck5knk5::hk:%&]hkkkh7_,!~>>>>>>>>>=>>>>>>>~{{{{{{{{{{{{{{{{{{>.*--======>=----------===============-+++",
" $&%(7:'';>>;,':7'(rnnk55c55cn5777knk,&%,''4hko(;)-){=>>>>>===>=>~~{{{{{{{{{{{{{{{{{{{>.*--======*==========================-+++",
" $*%_ccc7(>;_557',!:kkc5:::_55:74:kqn_%%|];;%((,;>-=>==>========>{/{{{{{{{{{{{{{{{{{{{~.*--=========-----------------=======*+++",
" .*$%:cch];'ckc5']!!'555:(,,_:_4,'cnk';,(((;&=;=>>=>>>===========>>~~{{{{^^^^^^^{^{{{~>+**-=====*===========---------=======*+++",
" .***%'',;,_hcc_,]]('_7_(,;;,(((__:oh,,(_'4,>====>==>================>>>~~~^^^^^^^^{~=* $***--*--*--===-----------------==--$+++",
"  $**&&&&&;,_:',,,(__(,%,,,;,((__7_4(,(__(];========>>==============>>=====>>>>>~~>==** $********----------------------****$++++",
"+ +$**&&&&&!,,,!!;(_(%%!,],,,((___,,,'___(,&********=-====************======******==**+ $$$$$$$*******--*************$$$$$$+++++",
"++ +$***==$&;;;!!,(_(@@!!,,,,(((((,%]'___,%*******************************==-=-****$++  +$$$$$$$$$$$$$$$$$$$$$$$$$$$$$$$$$++++++",
"+ ++   ..+ ....~!(_(]@.#;,,,,]],%]!@;%(((@. ++++++ ++ +    +              ++++++++    + ++++++++++++++++++++++++++++++   +++++++",
"+++       ++++.#],(];.+.#;,,,]!@@~&...;]&. ++                                    +++++++++                             +++++++++"};
